<?xml version="1.0" encoding="ISO-8859-1" standalone="no"?>
<!DOCTYPE svg PUBLIC "-//W3C//DTD SVG 1.1//EN" "http://www.w3.org/Graphics/SVG/1.1/DTD/svg11.dtd">
<svg version="1.1" baseProfile="full" id="body" width="8in" height="8in" viewBox="0 0 1 1" preserveAspectRatio="none" xmlns="http://www.w3.org/2000/svg" xmlns:xlink="http://www.w3.org/1999/xlink" xmlns:ev="http://www.w3.org/2001/xml-events">
<title>SVG drawing</title>
<desc>This was produced by version 4.4 of GNU libplot, a free library for exporting 2-D vector graphics.</desc>
<rect id="background" x="0" y="0" width="1" height="1" stroke="none" fill="white"/>
<g id="content" transform="translate(0,1) scale(1,-1) scale(0.00024414) " xml:space="preserve" stroke="black" stroke-linecap="butt" stroke-linejoin="miter" stroke-miterlimit="10.433" stroke-dasharray="none" stroke-dashoffset="0" stroke-opacity="1" fill="none" fill-rule="evenodd" fill-opacity="1" font-style="normal" font-variant="normal" font-weight="normal" font-stretch="normal" font-size-adjust="none" letter-spacing="normal" word-spacing="normal" text-anchor="start">
<rect x="819.2" y="819.2" width="2457.6" height="2457.6" stroke-width="4.8188" />
<text transform="translate(783.33,662.21) scale(1,-1) scale(6.4512) " font-family="Helvetica,sans-serif" font-size="20px" stroke="none" fill="black" >0</text>
<line x1="819.2" y1="3276.8" x2="819.2" y2="3227.6" stroke-width="4.8188" />
<line x1="819.2" y1="819.2" x2="819.2" y2="868.35" stroke-width="4.8188" />
<text transform="translate(1062.7,662.21) scale(1,-1) scale(6.4512) " font-family="Helvetica,sans-serif" font-size="20px" stroke="none" fill="black" >500</text>
<line x1="1170.3" y1="3276.8" x2="1170.3" y2="3227.6" stroke-width="4.8188" />
<line x1="1170.3" y1="819.2" x2="1170.3" y2="868.35" stroke-width="4.8188" />
<text transform="translate(1377.9,662.21) scale(1,-1) scale(6.4512) " font-family="Helvetica,sans-serif" font-size="20px" stroke="none" fill="black" >1000</text>
<line x1="1521.4" y1="3276.8" x2="1521.4" y2="3227.6" stroke-width="4.8188" />
<line x1="1521.4" y1="819.2" x2="1521.4" y2="868.35" stroke-width="4.8188" />
<text transform="translate(1729,662.21) scale(1,-1) scale(6.4512) " font-family="Helvetica,sans-serif" font-size="20px" stroke="none" fill="black" >1500</text>
<line x1="1872.5" y1="3276.8" x2="1872.5" y2="3227.6" stroke-width="4.8188" />
<line x1="1872.5" y1="819.2" x2="1872.5" y2="868.35" stroke-width="4.8188" />
<text transform="translate(2080.1,662.21) scale(1,-1) scale(6.4512) " font-family="Helvetica,sans-serif" font-size="20px" stroke="none" fill="black" >2000</text>
<line x1="2223.5" y1="3276.8" x2="2223.5" y2="3227.6" stroke-width="4.8188" />
<line x1="2223.5" y1="819.2" x2="2223.5" y2="868.35" stroke-width="4.8188" />
<text transform="translate(2431.2,662.21) scale(1,-1) scale(6.4512) " font-family="Helvetica,sans-serif" font-size="20px" stroke="none" fill="black" >2500</text>
<line x1="2574.6" y1="3276.8" x2="2574.6" y2="3227.6" stroke-width="4.8188" />
<line x1="2574.6" y1="819.2" x2="2574.6" y2="868.35" stroke-width="4.8188" />
<text transform="translate(2782.2,662.21) scale(1,-1) scale(6.4512) " font-family="Helvetica,sans-serif" font-size="20px" stroke="none" fill="black" >3000</text>
<line x1="2925.7" y1="3276.8" x2="2925.7" y2="3227.6" stroke-width="4.8188" />
<line x1="2925.7" y1="819.2" x2="2925.7" y2="868.35" stroke-width="4.8188" />
<text transform="translate(3133.3,662.21) scale(1,-1) scale(6.4512) " font-family="Helvetica,sans-serif" font-size="20px" stroke="none" fill="black" >3500</text>
<line x1="3276.8" y1="3276.8" x2="3276.8" y2="3227.6" stroke-width="4.8188" />
<line x1="3276.8" y1="819.2" x2="3276.8" y2="868.35" stroke-width="4.8188" />
<text transform="translate(710.6,773.65) scale(1,-1) scale(6.4512) " font-family="Helvetica,sans-serif" font-size="20px" stroke="none" fill="black" >0</text>
<line x1="3276.8" y1="819.2" x2="3227.6" y2="819.2" stroke-width="4.8188" />
<line x1="819.2" y1="819.2" x2="868.35" y2="819.2" stroke-width="4.8188" />
<text transform="translate(427.23,1388.1) scale(1,-1) scale(6.4512) " font-family="Helvetica,sans-serif" font-size="20px" stroke="none" fill="black" >5</text>
<text transform="translate(520.47,1388.1) scale(1,-1) scale(6.4512) " font-family="Helvetica,sans-serif" font-size="20px" stroke="none" fill="black" >×10</text>
<text transform="translate(739.29,1436.4) scale(1,-1) scale(3.8707) " font-family="Helvetica,sans-serif" font-size="20px" stroke="none" fill="black" >8</text>
<line x1="3276.8" y1="1433.6" x2="3227.6" y2="1433.6" stroke-width="4.8188" />
<line x1="819.2" y1="1433.6" x2="868.35" y2="1433.6" stroke-width="4.8188" />
<text transform="translate(319.62,2002.5) scale(1,-1) scale(6.4512) " font-family="Helvetica,sans-serif" font-size="20px" stroke="none" fill="black" >1.0</text>
<text transform="translate(520.47,2002.5) scale(1,-1) scale(6.4512) " font-family="Helvetica,sans-serif" font-size="20px" stroke="none" fill="black" >×10</text>
<text transform="translate(739.29,2050.8) scale(1,-1) scale(3.8707) " font-family="Helvetica,sans-serif" font-size="20px" stroke="none" fill="black" >9</text>
<line x1="3276.8" y1="2048" x2="3227.6" y2="2048" stroke-width="4.8188" />
<line x1="819.2" y1="2048" x2="868.35" y2="2048" stroke-width="4.8188" />
<text transform="translate(319.62,2616.9) scale(1,-1) scale(6.4512) " font-family="Helvetica,sans-serif" font-size="20px" stroke="none" fill="black" >1.5</text>
<text transform="translate(520.47,2616.9) scale(1,-1) scale(6.4512) " font-family="Helvetica,sans-serif" font-size="20px" stroke="none" fill="black" >×10</text>
<text transform="translate(739.29,2665.2) scale(1,-1) scale(3.8707) " font-family="Helvetica,sans-serif" font-size="20px" stroke="none" fill="black" >9</text>
<line x1="3276.8" y1="2662.4" x2="3227.6" y2="2662.4" stroke-width="4.8188" />
<line x1="819.2" y1="2662.4" x2="868.35" y2="2662.4" stroke-width="4.8188" />
<text transform="translate(319.62,3231.3) scale(1,-1) scale(6.4512) " font-family="Helvetica,sans-serif" font-size="20px" stroke="none" fill="black" >2.0</text>
<text transform="translate(520.47,3231.3) scale(1,-1) scale(6.4512) " font-family="Helvetica,sans-serif" font-size="20px" stroke="none" fill="black" >×10</text>
<text transform="translate(739.29,3279.6) scale(1,-1) scale(3.8707) " font-family="Helvetica,sans-serif" font-size="20px" stroke="none" fill="black" >9</text>
<line x1="3276.8" y1="3276.8" x2="3227.6" y2="3276.8" stroke-width="4.8188" />
<line x1="819.2" y1="3276.8" x2="868.35" y2="3276.8" stroke-width="4.8188" />
<line x1="3276.8" y1="819.2" x2="3257.1" y2="819.2" stroke-width="4.8188" />
<line x1="819.2" y1="819.2" x2="838.86" y2="819.2" stroke-width="4.8188" />
<line x1="3276.8" y1="942.08" x2="3257.1" y2="942.08" stroke-width="4.8188" />
<line x1="819.2" y1="942.08" x2="838.86" y2="942.08" stroke-width="4.8188" />
<line x1="3276.8" y1="1065" x2="3257.1" y2="1065" stroke-width="4.8188" />
<line x1="819.2" y1="1065" x2="838.86" y2="1065" stroke-width="4.8188" />
<line x1="3276.8" y1="1187.8" x2="3257.1" y2="1187.8" stroke-width="4.8188" />
<line x1="819.2" y1="1187.8" x2="838.86" y2="1187.8" stroke-width="4.8188" />
<line x1="3276.8" y1="1310.7" x2="3257.1" y2="1310.7" stroke-width="4.8188" />
<line x1="819.2" y1="1310.7" x2="838.86" y2="1310.7" stroke-width="4.8188" />
<line x1="3276.8" y1="1433.6" x2="3257.1" y2="1433.6" stroke-width="4.8188" />
<line x1="819.2" y1="1433.6" x2="838.86" y2="1433.6" stroke-width="4.8188" />
<line x1="3276.8" y1="1556.5" x2="3257.1" y2="1556.5" stroke-width="4.8188" />
<line x1="819.2" y1="1556.5" x2="838.86" y2="1556.5" stroke-width="4.8188" />
<line x1="3276.8" y1="1679.4" x2="3257.1" y2="1679.4" stroke-width="4.8188" />
<line x1="819.2" y1="1679.4" x2="838.86" y2="1679.4" stroke-width="4.8188" />
<line x1="3276.8" y1="1802.2" x2="3257.1" y2="1802.2" stroke-width="4.8188" />
<line x1="819.2" y1="1802.2" x2="838.86" y2="1802.2" stroke-width="4.8188" />
<line x1="3276.8" y1="1925.1" x2="3257.1" y2="1925.1" stroke-width="4.8188" />
<line x1="819.2" y1="1925.1" x2="838.86" y2="1925.1" stroke-width="4.8188" />
<line x1="3276.8" y1="2048" x2="3257.1" y2="2048" stroke-width="4.8188" />
<line x1="819.2" y1="2048" x2="838.86" y2="2048" stroke-width="4.8188" />
<line x1="3276.8" y1="2170.9" x2="3257.1" y2="2170.9" stroke-width="4.8188" />
<line x1="819.2" y1="2170.9" x2="838.86" y2="2170.9" stroke-width="4.8188" />
<line x1="3276.8" y1="2293.8" x2="3257.1" y2="2293.8" stroke-width="4.8188" />
<line x1="819.2" y1="2293.8" x2="838.86" y2="2293.8" stroke-width="4.8188" />
<line x1="3276.8" y1="2416.6" x2="3257.1" y2="2416.6" stroke-width="4.8188" />
<line x1="819.2" y1="2416.6" x2="838.86" y2="2416.6" stroke-width="4.8188" />
<line x1="3276.8" y1="2539.5" x2="3257.1" y2="2539.5" stroke-width="4.8188" />
<line x1="819.2" y1="2539.5" x2="838.86" y2="2539.5" stroke-width="4.8188" />
<line x1="3276.8" y1="2662.4" x2="3257.1" y2="2662.4" stroke-width="4.8188" />
<line x1="819.2" y1="2662.4" x2="838.86" y2="2662.4" stroke-width="4.8188" />
<line x1="3276.8" y1="2785.3" x2="3257.1" y2="2785.3" stroke-width="4.8188" />
<line x1="819.2" y1="2785.3" x2="838.86" y2="2785.3" stroke-width="4.8188" />
<line x1="3276.8" y1="2908.2" x2="3257.1" y2="2908.2" stroke-width="4.8188" />
<line x1="819.2" y1="2908.2" x2="838.86" y2="2908.2" stroke-width="4.8188" />
<line x1="3276.8" y1="3031" x2="3257.1" y2="3031" stroke-width="4.8188" />
<line x1="819.2" y1="3031" x2="838.86" y2="3031" stroke-width="4.8188" />
<line x1="3276.8" y1="3153.9" x2="3257.1" y2="3153.9" stroke-width="4.8188" />
<line x1="819.2" y1="3153.9" x2="838.86" y2="3153.9" stroke-width="4.8188" />
<line x1="3276.8" y1="3276.8" x2="3257.1" y2="3276.8" stroke-width="4.8188" />
<line x1="819.2" y1="3276.8" x2="838.86" y2="3276.8" stroke-width="4.8188" />
<text transform="translate(1686,501.24) scale(1,-1) scale(6.4512) " font-family="Helvetica,sans-serif" font-size="20px" stroke="none" fill="black" >Map size (K)</text>
<text transform="matrix(0 6.4512 6.4512 0 185.7 1392) " font-family="Helvetica,sans-serif" font-size="20px" stroke="none" fill="black" >Max Residency (bytes)</text>
<line x1="836.75" y1="801.13" x2="836.75" y2="847.21" stroke="red" stroke-width="2.304" />
<line x1="836.75" y1="824.17" x2="856.71" y2="835.69" stroke="red" stroke-width="2.304" />
<line x1="836.75" y1="824.17" x2="816.8" y2="812.65" stroke="red" stroke-width="2.304" />
<line x1="836.75" y1="824.17" x2="856.71" y2="812.65" stroke="red" stroke-width="2.304" />
<line x1="836.75" y1="824.17" x2="816.8" y2="835.69" stroke="red" stroke-width="2.304" />
<line x1="854.31" y1="806.05" x2="854.31" y2="852.13" stroke="red" stroke-width="2.304" />
<line x1="854.31" y1="829.09" x2="874.26" y2="840.61" stroke="red" stroke-width="2.304" />
<line x1="854.31" y1="829.09" x2="834.36" y2="817.57" stroke="red" stroke-width="2.304" />
<line x1="854.31" y1="829.09" x2="874.26" y2="817.57" stroke="red" stroke-width="2.304" />
<line x1="854.31" y1="829.09" x2="834.36" y2="840.61" stroke="red" stroke-width="2.304" />
<line x1="889.42" y1="815.88" x2="889.42" y2="861.96" stroke="red" stroke-width="2.304" />
<line x1="889.42" y1="838.92" x2="909.37" y2="850.44" stroke="red" stroke-width="2.304" />
<line x1="889.42" y1="838.92" x2="869.46" y2="827.4" stroke="red" stroke-width="2.304" />
<line x1="889.42" y1="838.92" x2="909.37" y2="827.4" stroke="red" stroke-width="2.304" />
<line x1="889.42" y1="838.92" x2="869.46" y2="850.44" stroke="red" stroke-width="2.304" />
<line x1="959.63" y1="835.54" x2="959.63" y2="881.62" stroke="red" stroke-width="2.304" />
<line x1="959.63" y1="858.58" x2="979.59" y2="870.1" stroke="red" stroke-width="2.304" />
<line x1="959.63" y1="858.58" x2="939.68" y2="847.06" stroke="red" stroke-width="2.304" />
<line x1="959.63" y1="858.58" x2="979.59" y2="847.06" stroke="red" stroke-width="2.304" />
<line x1="959.63" y1="858.58" x2="939.68" y2="870.1" stroke="red" stroke-width="2.304" />
<line x1="1100.1" y1="874.86" x2="1100.1" y2="920.94" stroke="red" stroke-width="2.304" />
<line x1="1100.1" y1="897.9" x2="1120" y2="909.42" stroke="red" stroke-width="2.304" />
<line x1="1100.1" y1="897.9" x2="1080.1" y2="886.38" stroke="red" stroke-width="2.304" />
<line x1="1100.1" y1="897.9" x2="1120" y2="886.38" stroke="red" stroke-width="2.304" />
<line x1="1100.1" y1="897.9" x2="1080.1" y2="909.42" stroke="red" stroke-width="2.304" />
<line x1="1380.9" y1="953.5" x2="1380.9" y2="999.58" stroke="red" stroke-width="2.304" />
<line x1="1380.9" y1="976.54" x2="1400.9" y2="988.06" stroke="red" stroke-width="2.304" />
<line x1="1380.9" y1="976.54" x2="1361" y2="965.02" stroke="red" stroke-width="2.304" />
<line x1="1380.9" y1="976.54" x2="1400.9" y2="965.02" stroke="red" stroke-width="2.304" />
<line x1="1380.9" y1="976.54" x2="1361" y2="988.06" stroke="red" stroke-width="2.304" />
<line x1="1942.7" y1="1110.8" x2="1942.7" y2="1156.9" stroke="red" stroke-width="2.304" />
<line x1="1942.7" y1="1133.8" x2="1962.6" y2="1145.4" stroke="red" stroke-width="2.304" />
<line x1="1942.7" y1="1133.8" x2="1922.7" y2="1122.3" stroke="red" stroke-width="2.304" />
<line x1="1942.7" y1="1133.8" x2="1962.6" y2="1122.3" stroke="red" stroke-width="2.304" />
<line x1="1942.7" y1="1133.8" x2="1922.7" y2="1145.4" stroke="red" stroke-width="2.304" />
<line x1="3066.1" y1="1425.4" x2="3066.1" y2="1471.4" stroke="red" stroke-width="2.304" />
<line x1="3066.1" y1="1448.4" x2="3086.1" y2="1459.9" stroke="red" stroke-width="2.304" />
<line x1="3066.1" y1="1448.4" x2="3046.2" y2="1436.9" stroke="red" stroke-width="2.304" />
<line x1="3066.1" y1="1448.4" x2="3086.1" y2="1436.9" stroke="red" stroke-width="2.304" />
<line x1="3066.1" y1="1448.4" x2="3046.2" y2="1459.9" stroke="red" stroke-width="2.304" />
<polyline points="836.75,824.17 854.31,829.09 889.42,838.92 959.63,858.58 1100.1,897.9 1380.9,976.54 1942.7,1133.8 3066.1,1448.4 " stroke="red" stroke-width="4.8188" />
<line x1="813.71" y1="812.6" x2="859.79" y2="858.68" stroke-width="2.304" />
<line x1="859.79" y1="812.6" x2="813.71" y2="858.68" stroke-width="2.304" />
<line x1="831.27" y1="827.98" x2="877.35" y2="874.06" stroke-width="2.304" />
<line x1="877.35" y1="827.98" x2="831.27" y2="874.06" stroke-width="2.304" />
<line x1="866.38" y1="856.62" x2="912.46" y2="902.7" stroke-width="2.304" />
<line x1="912.46" y1="856.62" x2="866.38" y2="902.7" stroke-width="2.304" />
<line x1="936.59" y1="932.01" x2="982.67" y2="978.09" stroke-width="2.304" />
<line x1="982.67" y1="932.01" x2="936.59" y2="978.09" stroke-width="2.304" />
<line x1="1077" y1="1023.3" x2="1123.1" y2="1069.4" stroke-width="2.304" />
<line x1="1123.1" y1="1023.3" x2="1077" y2="1069.4" stroke-width="2.304" />
<line x1="1357.9" y1="1378.8" x2="1404" y2="1424.9" stroke-width="2.304" />
<line x1="1404" y1="1378.8" x2="1357.9" y2="1424.9" stroke-width="2.304" />
<line x1="1919.6" y1="1656.5" x2="1965.7" y2="1702.6" stroke-width="2.304" />
<line x1="1965.7" y1="1656.5" x2="1919.6" y2="1702.6" stroke-width="2.304" />
<line x1="3043.1" y1="3089" x2="3089.2" y2="3135.1" stroke-width="2.304" />
<line x1="3089.2" y1="3089" x2="3043.1" y2="3135.1" stroke-width="2.304" />
<polyline points="836.75,835.64 854.31,851.02 889.42,879.66 959.63,955.05 1100.1,1046.4 1380.9,1401.8 1942.7,1679.6 3066.1,3112 " stroke-width="4.8188" stroke-dasharray="4.8188, 14.456" />
</g>
</svg>
