<?xml version="1.0" encoding="ISO-8859-1" standalone="no"?>
<!DOCTYPE svg PUBLIC "-//W3C//DTD SVG 1.1//EN" "http://www.w3.org/Graphics/SVG/1.1/DTD/svg11.dtd">
<svg version="1.1" baseProfile="full" id="body" width="8in" height="8in" viewBox="0 0 1 1" preserveAspectRatio="none" xmlns="http://www.w3.org/2000/svg" xmlns:xlink="http://www.w3.org/1999/xlink" xmlns:ev="http://www.w3.org/2001/xml-events">
<title>SVG drawing</title>
<desc>This was produced by version 4.4 of GNU libplot, a free library for exporting 2-D vector graphics.</desc>
<rect id="background" x="0" y="0" width="1" height="1" stroke="none" fill="white"/>
<g id="content" transform="translate(0,1) scale(1,-1) scale(0.00024414) " xml:space="preserve" stroke="black" stroke-linecap="butt" stroke-linejoin="miter" stroke-miterlimit="10.433" stroke-dasharray="none" stroke-dashoffset="0" stroke-opacity="1" fill="none" fill-rule="evenodd" fill-opacity="1" font-style="normal" font-variant="normal" font-weight="normal" font-stretch="normal" font-size-adjust="none" letter-spacing="normal" word-spacing="normal" text-anchor="start">
<rect x="819.2" y="819.2" width="2457.6" height="2457.6" stroke-width="4.8188" />
<text transform="translate(783.33,662.21) scale(1,-1) scale(6.4512) " font-family="Helvetica,sans-serif" font-size="20px" stroke="none" fill="black" >0</text>
<line x1="819.2" y1="3276.8" x2="819.2" y2="3227.6" stroke-width="4.8188" />
<line x1="819.2" y1="819.2" x2="819.2" y2="868.35" stroke-width="4.8188" />
<text transform="translate(1062.7,662.21) scale(1,-1) scale(6.4512) " font-family="Helvetica,sans-serif" font-size="20px" stroke="none" fill="black" >500</text>
<line x1="1170.3" y1="3276.8" x2="1170.3" y2="3227.6" stroke-width="4.8188" />
<line x1="1170.3" y1="819.2" x2="1170.3" y2="868.35" stroke-width="4.8188" />
<text transform="translate(1377.9,662.21) scale(1,-1) scale(6.4512) " font-family="Helvetica,sans-serif" font-size="20px" stroke="none" fill="black" >1000</text>
<line x1="1521.4" y1="3276.8" x2="1521.4" y2="3227.6" stroke-width="4.8188" />
<line x1="1521.4" y1="819.2" x2="1521.4" y2="868.35" stroke-width="4.8188" />
<text transform="translate(1729,662.21) scale(1,-1) scale(6.4512) " font-family="Helvetica,sans-serif" font-size="20px" stroke="none" fill="black" >1500</text>
<line x1="1872.5" y1="3276.8" x2="1872.5" y2="3227.6" stroke-width="4.8188" />
<line x1="1872.5" y1="819.2" x2="1872.5" y2="868.35" stroke-width="4.8188" />
<text transform="translate(2080.1,662.21) scale(1,-1) scale(6.4512) " font-family="Helvetica,sans-serif" font-size="20px" stroke="none" fill="black" >2000</text>
<line x1="2223.5" y1="3276.8" x2="2223.5" y2="3227.6" stroke-width="4.8188" />
<line x1="2223.5" y1="819.2" x2="2223.5" y2="868.35" stroke-width="4.8188" />
<text transform="translate(2431.2,662.21) scale(1,-1) scale(6.4512) " font-family="Helvetica,sans-serif" font-size="20px" stroke="none" fill="black" >2500</text>
<line x1="2574.6" y1="3276.8" x2="2574.6" y2="3227.6" stroke-width="4.8188" />
<line x1="2574.6" y1="819.2" x2="2574.6" y2="868.35" stroke-width="4.8188" />
<text transform="translate(2782.2,662.21) scale(1,-1) scale(6.4512) " font-family="Helvetica,sans-serif" font-size="20px" stroke="none" fill="black" >3000</text>
<line x1="2925.7" y1="3276.8" x2="2925.7" y2="3227.6" stroke-width="4.8188" />
<line x1="2925.7" y1="819.2" x2="2925.7" y2="868.35" stroke-width="4.8188" />
<text transform="translate(3133.3,662.21) scale(1,-1) scale(6.4512) " font-family="Helvetica,sans-serif" font-size="20px" stroke="none" fill="black" >3500</text>
<line x1="3276.8" y1="3276.8" x2="3276.8" y2="3227.6" stroke-width="4.8188" />
<line x1="3276.8" y1="819.2" x2="3276.8" y2="868.35" stroke-width="4.8188" />
<text transform="translate(602.99,773.65) scale(1,-1) scale(6.4512) " font-family="Helvetica,sans-serif" font-size="20px" stroke="none" fill="black" >0.0</text>
<line x1="3276.8" y1="819.2" x2="3227.6" y2="819.2" stroke-width="4.8188" />
<line x1="819.2" y1="819.2" x2="868.35" y2="819.2" stroke-width="4.8188" />
<text transform="translate(602.99,1183.3) scale(1,-1) scale(6.4512) " font-family="Helvetica,sans-serif" font-size="20px" stroke="none" fill="black" >0.1</text>
<line x1="3276.8" y1="1228.8" x2="3227.6" y2="1228.8" stroke-width="4.8188" />
<line x1="819.2" y1="1228.8" x2="868.35" y2="1228.8" stroke-width="4.8188" />
<text transform="translate(602.99,1592.9) scale(1,-1) scale(6.4512) " font-family="Helvetica,sans-serif" font-size="20px" stroke="none" fill="black" >0.2</text>
<line x1="3276.8" y1="1638.4" x2="3227.6" y2="1638.4" stroke-width="4.8188" />
<line x1="819.2" y1="1638.4" x2="868.35" y2="1638.4" stroke-width="4.8188" />
<text transform="translate(602.99,2002.5) scale(1,-1) scale(6.4512) " font-family="Helvetica,sans-serif" font-size="20px" stroke="none" fill="black" >0.3</text>
<line x1="3276.8" y1="2048" x2="3227.6" y2="2048" stroke-width="4.8188" />
<line x1="819.2" y1="2048" x2="868.35" y2="2048" stroke-width="4.8188" />
<text transform="translate(602.99,2412.1) scale(1,-1) scale(6.4512) " font-family="Helvetica,sans-serif" font-size="20px" stroke="none" fill="black" >0.4</text>
<line x1="3276.8" y1="2457.6" x2="3227.6" y2="2457.6" stroke-width="4.8188" />
<line x1="819.2" y1="2457.6" x2="868.35" y2="2457.6" stroke-width="4.8188" />
<text transform="translate(602.99,2821.7) scale(1,-1) scale(6.4512) " font-family="Helvetica,sans-serif" font-size="20px" stroke="none" fill="black" >0.5</text>
<line x1="3276.8" y1="2867.2" x2="3227.6" y2="2867.2" stroke-width="4.8188" />
<line x1="819.2" y1="2867.2" x2="868.35" y2="2867.2" stroke-width="4.8188" />
<text transform="translate(602.99,3231.3) scale(1,-1) scale(6.4512) " font-family="Helvetica,sans-serif" font-size="20px" stroke="none" fill="black" >0.6</text>
<line x1="3276.8" y1="3276.8" x2="3227.6" y2="3276.8" stroke-width="4.8188" />
<line x1="819.2" y1="3276.8" x2="868.35" y2="3276.8" stroke-width="4.8188" />
<line x1="3276.8" y1="819.2" x2="3257.1" y2="819.2" stroke-width="4.8188" />
<line x1="819.2" y1="819.2" x2="838.86" y2="819.2" stroke-width="4.8188" />
<line x1="3276.8" y1="1024" x2="3257.1" y2="1024" stroke-width="4.8188" />
<line x1="819.2" y1="1024" x2="838.86" y2="1024" stroke-width="4.8188" />
<line x1="3276.8" y1="1228.8" x2="3257.1" y2="1228.8" stroke-width="4.8188" />
<line x1="819.2" y1="1228.8" x2="838.86" y2="1228.8" stroke-width="4.8188" />
<line x1="3276.8" y1="1433.6" x2="3257.1" y2="1433.6" stroke-width="4.8188" />
<line x1="819.2" y1="1433.6" x2="838.86" y2="1433.6" stroke-width="4.8188" />
<line x1="3276.8" y1="1638.4" x2="3257.1" y2="1638.4" stroke-width="4.8188" />
<line x1="819.2" y1="1638.4" x2="838.86" y2="1638.4" stroke-width="4.8188" />
<line x1="3276.8" y1="1843.2" x2="3257.1" y2="1843.2" stroke-width="4.8188" />
<line x1="819.2" y1="1843.2" x2="838.86" y2="1843.2" stroke-width="4.8188" />
<line x1="3276.8" y1="2048" x2="3257.1" y2="2048" stroke-width="4.8188" />
<line x1="819.2" y1="2048" x2="838.86" y2="2048" stroke-width="4.8188" />
<line x1="3276.8" y1="2252.8" x2="3257.1" y2="2252.8" stroke-width="4.8188" />
<line x1="819.2" y1="2252.8" x2="838.86" y2="2252.8" stroke-width="4.8188" />
<line x1="3276.8" y1="2457.6" x2="3257.1" y2="2457.6" stroke-width="4.8188" />
<line x1="819.2" y1="2457.6" x2="838.86" y2="2457.6" stroke-width="4.8188" />
<line x1="3276.8" y1="2662.4" x2="3257.1" y2="2662.4" stroke-width="4.8188" />
<line x1="819.2" y1="2662.4" x2="838.86" y2="2662.4" stroke-width="4.8188" />
<line x1="3276.8" y1="2867.2" x2="3257.1" y2="2867.2" stroke-width="4.8188" />
<line x1="819.2" y1="2867.2" x2="838.86" y2="2867.2" stroke-width="4.8188" />
<line x1="3276.8" y1="3072" x2="3257.1" y2="3072" stroke-width="4.8188" />
<line x1="819.2" y1="3072" x2="838.86" y2="3072" stroke-width="4.8188" />
<line x1="3276.8" y1="3276.8" x2="3257.1" y2="3276.8" stroke-width="4.8188" />
<line x1="819.2" y1="3276.8" x2="838.86" y2="3276.8" stroke-width="4.8188" />
<text transform="translate(1686,501.24) scale(1,-1) scale(6.4512) " font-family="Helvetica,sans-serif" font-size="20px" stroke="none" fill="black" >Map size (K)</text>
<text transform="matrix(0 6.4512 6.4512 0 511.58 1463.6) " font-family="Helvetica,sans-serif" font-size="20px" stroke="none" fill="black" >Max Gen1 pause (s)</text>
<line x1="836.75" y1="811.32" x2="836.75" y2="857.4" stroke="red" stroke-width="2.304" />
<line x1="836.75" y1="834.36" x2="856.71" y2="845.88" stroke="red" stroke-width="2.304" />
<line x1="836.75" y1="834.36" x2="816.8" y2="822.84" stroke="red" stroke-width="2.304" />
<line x1="836.75" y1="834.36" x2="856.71" y2="822.84" stroke="red" stroke-width="2.304" />
<line x1="836.75" y1="834.36" x2="816.8" y2="845.88" stroke="red" stroke-width="2.304" />
<line x1="854.31" y1="824.01" x2="854.31" y2="870.09" stroke="red" stroke-width="2.304" />
<line x1="854.31" y1="847.05" x2="874.26" y2="858.57" stroke="red" stroke-width="2.304" />
<line x1="854.31" y1="847.05" x2="834.36" y2="835.53" stroke="red" stroke-width="2.304" />
<line x1="854.31" y1="847.05" x2="874.26" y2="835.53" stroke="red" stroke-width="2.304" />
<line x1="854.31" y1="847.05" x2="834.36" y2="858.57" stroke="red" stroke-width="2.304" />
<line x1="889.42" y1="854.32" x2="889.42" y2="900.4" stroke="red" stroke-width="2.304" />
<line x1="889.42" y1="877.36" x2="909.37" y2="888.88" stroke="red" stroke-width="2.304" />
<line x1="889.42" y1="877.36" x2="869.46" y2="865.84" stroke="red" stroke-width="2.304" />
<line x1="889.42" y1="877.36" x2="909.37" y2="865.84" stroke="red" stroke-width="2.304" />
<line x1="889.42" y1="877.36" x2="869.46" y2="888.88" stroke="red" stroke-width="2.304" />
<line x1="959.63" y1="911.26" x2="959.63" y2="957.34" stroke="red" stroke-width="2.304" />
<line x1="959.63" y1="934.3" x2="979.59" y2="945.82" stroke="red" stroke-width="2.304" />
<line x1="959.63" y1="934.3" x2="939.68" y2="922.78" stroke="red" stroke-width="2.304" />
<line x1="959.63" y1="934.3" x2="979.59" y2="922.78" stroke="red" stroke-width="2.304" />
<line x1="959.63" y1="934.3" x2="939.68" y2="945.82" stroke="red" stroke-width="2.304" />
<line x1="1100.1" y1="1024.3" x2="1100.1" y2="1070.4" stroke="red" stroke-width="2.304" />
<line x1="1100.1" y1="1047.3" x2="1120" y2="1058.9" stroke="red" stroke-width="2.304" />
<line x1="1100.1" y1="1047.3" x2="1080.1" y2="1035.8" stroke="red" stroke-width="2.304" />
<line x1="1100.1" y1="1047.3" x2="1120" y2="1035.8" stroke="red" stroke-width="2.304" />
<line x1="1100.1" y1="1047.3" x2="1080.1" y2="1058.9" stroke="red" stroke-width="2.304" />
<line x1="1380.9" y1="1257.4" x2="1380.9" y2="1303.4" stroke="red" stroke-width="2.304" />
<line x1="1380.9" y1="1280.4" x2="1400.9" y2="1291.9" stroke="red" stroke-width="2.304" />
<line x1="1380.9" y1="1280.4" x2="1361" y2="1268.9" stroke="red" stroke-width="2.304" />
<line x1="1380.9" y1="1280.4" x2="1400.9" y2="1268.9" stroke="red" stroke-width="2.304" />
<line x1="1380.9" y1="1280.4" x2="1361" y2="1291.9" stroke="red" stroke-width="2.304" />
<line x1="1942.7" y1="1775.1" x2="1942.7" y2="1821.2" stroke="red" stroke-width="2.304" />
<line x1="1942.7" y1="1798.1" x2="1962.6" y2="1809.7" stroke="red" stroke-width="2.304" />
<line x1="1942.7" y1="1798.1" x2="1922.7" y2="1786.6" stroke="red" stroke-width="2.304" />
<line x1="1942.7" y1="1798.1" x2="1962.6" y2="1786.6" stroke="red" stroke-width="2.304" />
<line x1="1942.7" y1="1798.1" x2="1922.7" y2="1809.7" stroke="red" stroke-width="2.304" />
<line x1="3066.1" y1="3179.2" x2="3066.1" y2="3225.3" stroke="red" stroke-width="2.304" />
<line x1="3066.1" y1="3202.3" x2="3086.1" y2="3213.8" stroke="red" stroke-width="2.304" />
<line x1="3066.1" y1="3202.3" x2="3046.2" y2="3190.7" stroke="red" stroke-width="2.304" />
<line x1="3066.1" y1="3202.3" x2="3086.1" y2="3190.7" stroke="red" stroke-width="2.304" />
<line x1="3066.1" y1="3202.3" x2="3046.2" y2="3213.8" stroke="red" stroke-width="2.304" />
<polyline points="836.75,834.36 854.31,847.05 889.42,877.36 959.63,934.3 1100.1,1047.3 1380.9,1280.4 1942.7,1798.1 3066.1,3202.3 " stroke="red" stroke-width="4.8188" />
<line x1="813.71" y1="801.08" x2="859.79" y2="847.16" stroke-width="2.304" />
<line x1="859.79" y1="801.08" x2="813.71" y2="847.16" stroke-width="2.304" />
<line x1="831.27" y1="802.71" x2="877.35" y2="848.79" stroke-width="2.304" />
<line x1="877.35" y1="802.71" x2="831.27" y2="848.79" stroke-width="2.304" />
<line x1="866.38" y1="808.45" x2="912.46" y2="854.53" stroke-width="2.304" />
<line x1="912.46" y1="808.45" x2="866.38" y2="854.53" stroke-width="2.304" />
<line x1="936.59" y1="819.92" x2="982.67" y2="866" stroke-width="2.304" />
<line x1="982.67" y1="819.92" x2="936.59" y2="866" stroke-width="2.304" />
<line x1="1077" y1="847.36" x2="1123.1" y2="893.44" stroke-width="2.304" />
<line x1="1123.1" y1="847.36" x2="1077" y2="893.44" stroke-width="2.304" />
<line x1="1357.9" y1="900.61" x2="1404" y2="946.69" stroke-width="2.304" />
<line x1="1404" y1="900.61" x2="1357.9" y2="946.69" stroke-width="2.304" />
<line x1="1919.6" y1="1008.7" x2="1965.7" y2="1054.8" stroke-width="2.304" />
<line x1="1965.7" y1="1008.7" x2="1919.6" y2="1054.8" stroke-width="2.304" />
<line x1="3043.1" y1="1232.8" x2="3089.2" y2="1278.9" stroke-width="2.304" />
<line x1="3089.2" y1="1232.8" x2="3043.1" y2="1278.9" stroke-width="2.304" />
<polyline points="836.75,824.12 854.31,825.75 889.42,831.49 959.63,842.96 1100.1,870.4 1380.9,923.65 1942.7,1031.8 3066.1,1255.8 " stroke-width="4.8188" stroke-dasharray="4.8188, 14.456" />
</g>
</svg>
