<?xml version="1.0" encoding="ISO-8859-1" standalone="no"?>
<!DOCTYPE svg PUBLIC "-//W3C//DTD SVG 1.1//EN" "http://www.w3.org/Graphics/SVG/1.1/DTD/svg11.dtd">
<svg version="1.1" baseProfile="full" id="body" width="8in" height="8in" viewBox="0 0 1 1" preserveAspectRatio="none" xmlns="http://www.w3.org/2000/svg" xmlns:xlink="http://www.w3.org/1999/xlink" xmlns:ev="http://www.w3.org/2001/xml-events">
<title>SVG drawing</title>
<desc>This was produced by version 4.4 of GNU libplot, a free library for exporting 2-D vector graphics.</desc>
<rect id="background" x="0" y="0" width="1" height="1" stroke="none" fill="white"/>
<g id="content" transform="translate(0,1) scale(1,-1) scale(0.00024414) " xml:space="preserve" stroke="black" stroke-linecap="butt" stroke-linejoin="miter" stroke-miterlimit="10.433" stroke-dasharray="none" stroke-dashoffset="0" stroke-opacity="1" fill="none" fill-rule="evenodd" fill-opacity="1" font-style="normal" font-variant="normal" font-weight="normal" font-stretch="normal" font-size-adjust="none" letter-spacing="normal" word-spacing="normal" text-anchor="start">
<text transform="translate(1008.2,3451.9) scale(1,-1) scale(8.6016) " font-family="Helvetica,sans-serif" font-size="20px" stroke="none" fill="black" >Pauses by GC - PusherBS</text>
<rect x="819.2" y="819.2" width="2457.6" height="2457.6" stroke-width="4.8188" />
<text transform="translate(783.33,662.21) scale(1,-1) scale(6.4512) " font-family="Helvetica,sans-serif" font-size="20px" stroke="none" fill="black" >0</text>
<line x1="819.2" y1="3276.8" x2="819.2" y2="3227.6" stroke-width="4.8188" />
<line x1="819.2" y1="819.2" x2="819.2" y2="868.35" stroke-width="4.8188" />
<text transform="translate(1062.7,662.21) scale(1,-1) scale(6.4512) " font-family="Helvetica,sans-serif" font-size="20px" stroke="none" fill="black" >500</text>
<line x1="1170.3" y1="3276.8" x2="1170.3" y2="3227.6" stroke-width="4.8188" />
<line x1="1170.3" y1="819.2" x2="1170.3" y2="868.35" stroke-width="4.8188" />
<text transform="translate(1377.9,662.21) scale(1,-1) scale(6.4512) " font-family="Helvetica,sans-serif" font-size="20px" stroke="none" fill="black" >1000</text>
<line x1="1521.4" y1="3276.8" x2="1521.4" y2="3227.6" stroke-width="4.8188" />
<line x1="1521.4" y1="819.2" x2="1521.4" y2="868.35" stroke-width="4.8188" />
<text transform="translate(1729,662.21) scale(1,-1) scale(6.4512) " font-family="Helvetica,sans-serif" font-size="20px" stroke="none" fill="black" >1500</text>
<line x1="1872.5" y1="3276.8" x2="1872.5" y2="3227.6" stroke-width="4.8188" />
<line x1="1872.5" y1="819.2" x2="1872.5" y2="868.35" stroke-width="4.8188" />
<text transform="translate(2080.1,662.21) scale(1,-1) scale(6.4512) " font-family="Helvetica,sans-serif" font-size="20px" stroke="none" fill="black" >2000</text>
<line x1="2223.5" y1="3276.8" x2="2223.5" y2="3227.6" stroke-width="4.8188" />
<line x1="2223.5" y1="819.2" x2="2223.5" y2="868.35" stroke-width="4.8188" />
<text transform="translate(2431.2,662.21) scale(1,-1) scale(6.4512) " font-family="Helvetica,sans-serif" font-size="20px" stroke="none" fill="black" >2500</text>
<line x1="2574.6" y1="3276.8" x2="2574.6" y2="3227.6" stroke-width="4.8188" />
<line x1="2574.6" y1="819.2" x2="2574.6" y2="868.35" stroke-width="4.8188" />
<text transform="translate(2782.2,662.21) scale(1,-1) scale(6.4512) " font-family="Helvetica,sans-serif" font-size="20px" stroke="none" fill="black" >3000</text>
<line x1="2925.7" y1="3276.8" x2="2925.7" y2="3227.6" stroke-width="4.8188" />
<line x1="2925.7" y1="819.2" x2="2925.7" y2="868.35" stroke-width="4.8188" />
<text transform="translate(3133.3,662.21) scale(1,-1) scale(6.4512) " font-family="Helvetica,sans-serif" font-size="20px" stroke="none" fill="black" >3500</text>
<line x1="3276.8" y1="3276.8" x2="3276.8" y2="3227.6" stroke-width="4.8188" />
<line x1="3276.8" y1="819.2" x2="3276.8" y2="868.35" stroke-width="4.8188" />
<text transform="translate(602.99,773.65) scale(1,-1) scale(6.4512) " font-family="Helvetica,sans-serif" font-size="20px" stroke="none" fill="black" >0.0</text>
<line x1="3276.8" y1="819.2" x2="3227.6" y2="819.2" stroke-width="4.8188" />
<line x1="819.2" y1="819.2" x2="868.35" y2="819.2" stroke-width="4.8188" />
<text transform="translate(602.99,1124.7) scale(1,-1) scale(6.4512) " font-family="Helvetica,sans-serif" font-size="20px" stroke="none" fill="black" >0.1</text>
<line x1="3276.8" y1="1170.3" x2="3227.6" y2="1170.3" stroke-width="4.8188" />
<line x1="819.2" y1="1170.3" x2="868.35" y2="1170.3" stroke-width="4.8188" />
<text transform="translate(602.99,1475.8) scale(1,-1) scale(6.4512) " font-family="Helvetica,sans-serif" font-size="20px" stroke="none" fill="black" >0.2</text>
<line x1="3276.8" y1="1521.4" x2="3227.6" y2="1521.4" stroke-width="4.8188" />
<line x1="819.2" y1="1521.4" x2="868.35" y2="1521.4" stroke-width="4.8188" />
<text transform="translate(602.99,1826.9) scale(1,-1) scale(6.4512) " font-family="Helvetica,sans-serif" font-size="20px" stroke="none" fill="black" >0.3</text>
<line x1="3276.8" y1="1872.5" x2="3227.6" y2="1872.5" stroke-width="4.8188" />
<line x1="819.2" y1="1872.5" x2="868.35" y2="1872.5" stroke-width="4.8188" />
<text transform="translate(602.99,2178) scale(1,-1) scale(6.4512) " font-family="Helvetica,sans-serif" font-size="20px" stroke="none" fill="black" >0.4</text>
<line x1="3276.8" y1="2223.5" x2="3227.6" y2="2223.5" stroke-width="4.8188" />
<line x1="819.2" y1="2223.5" x2="868.35" y2="2223.5" stroke-width="4.8188" />
<text transform="translate(602.99,2529.1) scale(1,-1) scale(6.4512) " font-family="Helvetica,sans-serif" font-size="20px" stroke="none" fill="black" >0.5</text>
<line x1="3276.8" y1="2574.6" x2="3227.6" y2="2574.6" stroke-width="4.8188" />
<line x1="819.2" y1="2574.6" x2="868.35" y2="2574.6" stroke-width="4.8188" />
<text transform="translate(602.99,2880.2) scale(1,-1) scale(6.4512) " font-family="Helvetica,sans-serif" font-size="20px" stroke="none" fill="black" >0.6</text>
<line x1="3276.8" y1="2925.7" x2="3227.6" y2="2925.7" stroke-width="4.8188" />
<line x1="819.2" y1="2925.7" x2="868.35" y2="2925.7" stroke-width="4.8188" />
<text transform="translate(602.99,3231.3) scale(1,-1) scale(6.4512) " font-family="Helvetica,sans-serif" font-size="20px" stroke="none" fill="black" >0.7</text>
<line x1="3276.8" y1="3276.8" x2="3227.6" y2="3276.8" stroke-width="4.8188" />
<line x1="819.2" y1="3276.8" x2="868.35" y2="3276.8" stroke-width="4.8188" />
<line x1="3276.8" y1="819.2" x2="3257.1" y2="819.2" stroke-width="4.8188" />
<line x1="819.2" y1="819.2" x2="838.86" y2="819.2" stroke-width="4.8188" />
<line x1="3276.8" y1="994.74" x2="3257.1" y2="994.74" stroke-width="4.8188" />
<line x1="819.2" y1="994.74" x2="838.86" y2="994.74" stroke-width="4.8188" />
<line x1="3276.8" y1="1170.3" x2="3257.1" y2="1170.3" stroke-width="4.8188" />
<line x1="819.2" y1="1170.3" x2="838.86" y2="1170.3" stroke-width="4.8188" />
<line x1="3276.8" y1="1345.8" x2="3257.1" y2="1345.8" stroke-width="4.8188" />
<line x1="819.2" y1="1345.8" x2="838.86" y2="1345.8" stroke-width="4.8188" />
<line x1="3276.8" y1="1521.4" x2="3257.1" y2="1521.4" stroke-width="4.8188" />
<line x1="819.2" y1="1521.4" x2="838.86" y2="1521.4" stroke-width="4.8188" />
<line x1="3276.8" y1="1696.9" x2="3257.1" y2="1696.9" stroke-width="4.8188" />
<line x1="819.2" y1="1696.9" x2="838.86" y2="1696.9" stroke-width="4.8188" />
<line x1="3276.8" y1="1872.5" x2="3257.1" y2="1872.5" stroke-width="4.8188" />
<line x1="819.2" y1="1872.5" x2="838.86" y2="1872.5" stroke-width="4.8188" />
<line x1="3276.8" y1="2048" x2="3257.1" y2="2048" stroke-width="4.8188" />
<line x1="819.2" y1="2048" x2="838.86" y2="2048" stroke-width="4.8188" />
<line x1="3276.8" y1="2223.5" x2="3257.1" y2="2223.5" stroke-width="4.8188" />
<line x1="819.2" y1="2223.5" x2="838.86" y2="2223.5" stroke-width="4.8188" />
<line x1="3276.8" y1="2399.1" x2="3257.1" y2="2399.1" stroke-width="4.8188" />
<line x1="819.2" y1="2399.1" x2="838.86" y2="2399.1" stroke-width="4.8188" />
<line x1="3276.8" y1="2574.6" x2="3257.1" y2="2574.6" stroke-width="4.8188" />
<line x1="819.2" y1="2574.6" x2="838.86" y2="2574.6" stroke-width="4.8188" />
<line x1="3276.8" y1="2750.2" x2="3257.1" y2="2750.2" stroke-width="4.8188" />
<line x1="819.2" y1="2750.2" x2="838.86" y2="2750.2" stroke-width="4.8188" />
<line x1="3276.8" y1="2925.7" x2="3257.1" y2="2925.7" stroke-width="4.8188" />
<line x1="819.2" y1="2925.7" x2="838.86" y2="2925.7" stroke-width="4.8188" />
<line x1="3276.8" y1="3101.3" x2="3257.1" y2="3101.3" stroke-width="4.8188" />
<line x1="819.2" y1="3101.3" x2="838.86" y2="3101.3" stroke-width="4.8188" />
<line x1="3276.8" y1="3276.8" x2="3257.1" y2="3276.8" stroke-width="4.8188" />
<line x1="819.2" y1="3276.8" x2="838.86" y2="3276.8" stroke-width="4.8188" />
<text transform="translate(1686,501.24) scale(1,-1) scale(6.4512) " font-family="Helvetica,sans-serif" font-size="20px" stroke="none" fill="black" >Map size (K)</text>
<text transform="matrix(0 6.4512 6.4512 0 511.58 1832.9) " font-family="Helvetica,sans-serif" font-size="20px" stroke="none" fill="black" >Pauses</text>
<line x1="836.75" y1="821.09" x2="836.75" y2="867.17" stroke="red" stroke-width="2.304" />
<line x1="836.75" y1="844.13" x2="856.71" y2="855.65" stroke="red" stroke-width="2.304" />
<line x1="836.75" y1="844.13" x2="816.8" y2="832.61" stroke="red" stroke-width="2.304" />
<line x1="836.75" y1="844.13" x2="856.71" y2="832.61" stroke="red" stroke-width="2.304" />
<line x1="836.75" y1="844.13" x2="816.8" y2="855.65" stroke="red" stroke-width="2.304" />
<line x1="854.31" y1="830.57" x2="854.31" y2="876.65" stroke="red" stroke-width="2.304" />
<line x1="854.31" y1="853.61" x2="874.26" y2="865.13" stroke="red" stroke-width="2.304" />
<line x1="854.31" y1="853.61" x2="834.36" y2="842.09" stroke="red" stroke-width="2.304" />
<line x1="854.31" y1="853.61" x2="874.26" y2="842.09" stroke="red" stroke-width="2.304" />
<line x1="854.31" y1="853.61" x2="834.36" y2="865.13" stroke="red" stroke-width="2.304" />
<line x1="889.42" y1="864.62" x2="889.42" y2="910.7" stroke="red" stroke-width="2.304" />
<line x1="889.42" y1="887.66" x2="909.37" y2="899.18" stroke="red" stroke-width="2.304" />
<line x1="889.42" y1="887.66" x2="869.46" y2="876.14" stroke="red" stroke-width="2.304" />
<line x1="889.42" y1="887.66" x2="909.37" y2="876.14" stroke="red" stroke-width="2.304" />
<line x1="889.42" y1="887.66" x2="869.46" y2="899.18" stroke="red" stroke-width="2.304" />
<line x1="959.63" y1="939.75" x2="959.63" y2="985.83" stroke="red" stroke-width="2.304" />
<line x1="959.63" y1="962.79" x2="979.59" y2="974.31" stroke="red" stroke-width="2.304" />
<line x1="959.63" y1="962.79" x2="939.68" y2="951.27" stroke="red" stroke-width="2.304" />
<line x1="959.63" y1="962.79" x2="979.59" y2="951.27" stroke="red" stroke-width="2.304" />
<line x1="959.63" y1="962.79" x2="939.68" y2="974.31" stroke="red" stroke-width="2.304" />
<line x1="1100.1" y1="1065.8" x2="1100.1" y2="1111.9" stroke="red" stroke-width="2.304" />
<line x1="1100.1" y1="1088.8" x2="1120" y2="1100.4" stroke="red" stroke-width="2.304" />
<line x1="1100.1" y1="1088.8" x2="1080.1" y2="1077.3" stroke="red" stroke-width="2.304" />
<line x1="1100.1" y1="1088.8" x2="1120" y2="1077.3" stroke="red" stroke-width="2.304" />
<line x1="1100.1" y1="1088.8" x2="1080.1" y2="1100.4" stroke="red" stroke-width="2.304" />
<line x1="1380.9" y1="1328.1" x2="1380.9" y2="1374.1" stroke="red" stroke-width="2.304" />
<line x1="1380.9" y1="1351.1" x2="1400.9" y2="1362.6" stroke="red" stroke-width="2.304" />
<line x1="1380.9" y1="1351.1" x2="1361" y2="1339.6" stroke="red" stroke-width="2.304" />
<line x1="1380.9" y1="1351.1" x2="1400.9" y2="1339.6" stroke="red" stroke-width="2.304" />
<line x1="1380.9" y1="1351.1" x2="1361" y2="1362.6" stroke="red" stroke-width="2.304" />
<line x1="1942.7" y1="1865.6" x2="1942.7" y2="1911.6" stroke="red" stroke-width="2.304" />
<line x1="1942.7" y1="1888.6" x2="1962.6" y2="1900.1" stroke="red" stroke-width="2.304" />
<line x1="1942.7" y1="1888.6" x2="1922.7" y2="1877.1" stroke="red" stroke-width="2.304" />
<line x1="1942.7" y1="1888.6" x2="1962.6" y2="1877.1" stroke="red" stroke-width="2.304" />
<line x1="1942.7" y1="1888.6" x2="1922.7" y2="1900.1" stroke="red" stroke-width="2.304" />
<line x1="3066.1" y1="3052.6" x2="3066.1" y2="3098.7" stroke="red" stroke-width="2.304" />
<line x1="3066.1" y1="3075.6" x2="3086.1" y2="3087.1" stroke="red" stroke-width="2.304" />
<line x1="3066.1" y1="3075.6" x2="3046.2" y2="3064.1" stroke="red" stroke-width="2.304" />
<line x1="3066.1" y1="3075.6" x2="3086.1" y2="3064.1" stroke="red" stroke-width="2.304" />
<line x1="3066.1" y1="3075.6" x2="3046.2" y2="3087.1" stroke="red" stroke-width="2.304" />
<polyline points="836.75,844.13 854.31,853.61 889.42,887.66 959.63,962.79 1100.1,1088.8 1380.9,1351.1 1942.7,1888.6 3066.1,3075.6 " stroke="red" stroke-width="4.8188" />
<line x1="813.71" y1="799.32" x2="859.79" y2="845.4" stroke-width="2.304" />
<line x1="859.79" y1="799.32" x2="813.71" y2="845.4" stroke-width="2.304" />
<line x1="831.27" y1="802.83" x2="877.35" y2="848.91" stroke-width="2.304" />
<line x1="877.35" y1="802.83" x2="831.27" y2="848.91" stroke-width="2.304" />
<line x1="866.38" y1="810.91" x2="912.46" y2="856.99" stroke-width="2.304" />
<line x1="912.46" y1="810.91" x2="866.38" y2="856.99" stroke-width="2.304" />
<line x1="936.59" y1="823.19" x2="982.67" y2="869.27" stroke-width="2.304" />
<line x1="982.67" y1="823.19" x2="936.59" y2="869.27" stroke-width="2.304" />
<line x1="1077" y1="857.95" x2="1123.1" y2="904.03" stroke-width="2.304" />
<line x1="1123.1" y1="857.95" x2="1077" y2="904.03" stroke-width="2.304" />
<line x1="1357.9" y1="916.58" x2="1404" y2="962.66" stroke-width="2.304" />
<line x1="1404" y1="916.58" x2="1357.9" y2="962.66" stroke-width="2.304" />
<line x1="1919.6" y1="1008.2" x2="1965.7" y2="1054.3" stroke-width="2.304" />
<line x1="1965.7" y1="1008.2" x2="1919.6" y2="1054.3" stroke-width="2.304" />
<line x1="3043.1" y1="1213.2" x2="3089.2" y2="1259.3" stroke-width="2.304" />
<line x1="3089.2" y1="1213.2" x2="3043.1" y2="1259.3" stroke-width="2.304" />
<polyline points="836.75,822.36 854.31,825.87 889.42,833.95 959.63,846.23 1100.1,880.99 1380.9,939.62 1942.7,1031.3 3066.1,1236.3 " stroke-width="4.8188" stroke-dasharray="4.8188, 14.456" />
</g>
</svg>
