<?xml version="1.0" encoding="ISO-8859-1" standalone="no"?>
<!DOCTYPE svg PUBLIC "-//W3C//DTD SVG 1.1//EN" "http://www.w3.org/Graphics/SVG/1.1/DTD/svg11.dtd">
<svg version="1.1" baseProfile="full" id="body" width="8in" height="8in" viewBox="0 0 1 1" preserveAspectRatio="none" xmlns="http://www.w3.org/2000/svg" xmlns:xlink="http://www.w3.org/1999/xlink" xmlns:ev="http://www.w3.org/2001/xml-events">
<title>SVG drawing</title>
<desc>This was produced by version 4.4 of GNU libplot, a free library for exporting 2-D vector graphics.</desc>
<rect id="background" x="0" y="0" width="1" height="1" stroke="none" fill="white"/>
<g id="content" transform="translate(0,1) scale(1,-1) scale(0.00024414) " xml:space="preserve" stroke="black" stroke-linecap="butt" stroke-linejoin="miter" stroke-miterlimit="10.433" stroke-dasharray="none" stroke-dashoffset="0" stroke-opacity="1" fill="none" fill-rule="evenodd" fill-opacity="1" font-style="normal" font-variant="normal" font-weight="normal" font-stretch="normal" font-size-adjust="none" letter-spacing="normal" word-spacing="normal" text-anchor="start">
<text transform="translate(850.4,3451.9) scale(1,-1) scale(8.6016) " font-family="Helvetica,sans-serif" font-size="20px" stroke="none" fill="black" >Pauses by GC - PusherDouble</text>
<rect x="819.2" y="819.2" width="2457.6" height="2457.6" stroke-width="4.8188" />
<text transform="translate(783.33,662.21) scale(1,-1) scale(6.4512) " font-family="Helvetica,sans-serif" font-size="20px" stroke="none" fill="black" >0</text>
<line x1="819.2" y1="3276.8" x2="819.2" y2="3227.6" stroke-width="4.8188" />
<line x1="819.2" y1="819.2" x2="819.2" y2="868.35" stroke-width="4.8188" />
<text transform="translate(1062.7,662.21) scale(1,-1) scale(6.4512) " font-family="Helvetica,sans-serif" font-size="20px" stroke="none" fill="black" >500</text>
<line x1="1170.3" y1="3276.8" x2="1170.3" y2="3227.6" stroke-width="4.8188" />
<line x1="1170.3" y1="819.2" x2="1170.3" y2="868.35" stroke-width="4.8188" />
<text transform="translate(1377.9,662.21) scale(1,-1) scale(6.4512) " font-family="Helvetica,sans-serif" font-size="20px" stroke="none" fill="black" >1000</text>
<line x1="1521.4" y1="3276.8" x2="1521.4" y2="3227.6" stroke-width="4.8188" />
<line x1="1521.4" y1="819.2" x2="1521.4" y2="868.35" stroke-width="4.8188" />
<text transform="translate(1729,662.21) scale(1,-1) scale(6.4512) " font-family="Helvetica,sans-serif" font-size="20px" stroke="none" fill="black" >1500</text>
<line x1="1872.5" y1="3276.8" x2="1872.5" y2="3227.6" stroke-width="4.8188" />
<line x1="1872.5" y1="819.2" x2="1872.5" y2="868.35" stroke-width="4.8188" />
<text transform="translate(2080.1,662.21) scale(1,-1) scale(6.4512) " font-family="Helvetica,sans-serif" font-size="20px" stroke="none" fill="black" >2000</text>
<line x1="2223.5" y1="3276.8" x2="2223.5" y2="3227.6" stroke-width="4.8188" />
<line x1="2223.5" y1="819.2" x2="2223.5" y2="868.35" stroke-width="4.8188" />
<text transform="translate(2431.2,662.21) scale(1,-1) scale(6.4512) " font-family="Helvetica,sans-serif" font-size="20px" stroke="none" fill="black" >2500</text>
<line x1="2574.6" y1="3276.8" x2="2574.6" y2="3227.6" stroke-width="4.8188" />
<line x1="2574.6" y1="819.2" x2="2574.6" y2="868.35" stroke-width="4.8188" />
<text transform="translate(2782.2,662.21) scale(1,-1) scale(6.4512) " font-family="Helvetica,sans-serif" font-size="20px" stroke="none" fill="black" >3000</text>
<line x1="2925.7" y1="3276.8" x2="2925.7" y2="3227.6" stroke-width="4.8188" />
<line x1="2925.7" y1="819.2" x2="2925.7" y2="868.35" stroke-width="4.8188" />
<text transform="translate(3133.3,662.21) scale(1,-1) scale(6.4512) " font-family="Helvetica,sans-serif" font-size="20px" stroke="none" fill="black" >3500</text>
<line x1="3276.8" y1="3276.8" x2="3276.8" y2="3227.6" stroke-width="4.8188" />
<line x1="3276.8" y1="819.2" x2="3276.8" y2="868.35" stroke-width="4.8188" />
<text transform="translate(602.99,773.65) scale(1,-1) scale(6.4512) " font-family="Helvetica,sans-serif" font-size="20px" stroke="none" fill="black" >0.0</text>
<line x1="3276.8" y1="819.2" x2="3227.6" y2="819.2" stroke-width="4.8188" />
<line x1="819.2" y1="819.2" x2="868.35" y2="819.2" stroke-width="4.8188" />
<text transform="translate(602.99,1183.3) scale(1,-1) scale(6.4512) " font-family="Helvetica,sans-serif" font-size="20px" stroke="none" fill="black" >0.1</text>
<line x1="3276.8" y1="1228.8" x2="3227.6" y2="1228.8" stroke-width="4.8188" />
<line x1="819.2" y1="1228.8" x2="868.35" y2="1228.8" stroke-width="4.8188" />
<text transform="translate(602.99,1592.9) scale(1,-1) scale(6.4512) " font-family="Helvetica,sans-serif" font-size="20px" stroke="none" fill="black" >0.2</text>
<line x1="3276.8" y1="1638.4" x2="3227.6" y2="1638.4" stroke-width="4.8188" />
<line x1="819.2" y1="1638.4" x2="868.35" y2="1638.4" stroke-width="4.8188" />
<text transform="translate(602.99,2002.5) scale(1,-1) scale(6.4512) " font-family="Helvetica,sans-serif" font-size="20px" stroke="none" fill="black" >0.3</text>
<line x1="3276.8" y1="2048" x2="3227.6" y2="2048" stroke-width="4.8188" />
<line x1="819.2" y1="2048" x2="868.35" y2="2048" stroke-width="4.8188" />
<text transform="translate(602.99,2412.1) scale(1,-1) scale(6.4512) " font-family="Helvetica,sans-serif" font-size="20px" stroke="none" fill="black" >0.4</text>
<line x1="3276.8" y1="2457.6" x2="3227.6" y2="2457.6" stroke-width="4.8188" />
<line x1="819.2" y1="2457.6" x2="868.35" y2="2457.6" stroke-width="4.8188" />
<text transform="translate(602.99,2821.7) scale(1,-1) scale(6.4512) " font-family="Helvetica,sans-serif" font-size="20px" stroke="none" fill="black" >0.5</text>
<line x1="3276.8" y1="2867.2" x2="3227.6" y2="2867.2" stroke-width="4.8188" />
<line x1="819.2" y1="2867.2" x2="868.35" y2="2867.2" stroke-width="4.8188" />
<text transform="translate(602.99,3231.3) scale(1,-1) scale(6.4512) " font-family="Helvetica,sans-serif" font-size="20px" stroke="none" fill="black" >0.6</text>
<line x1="3276.8" y1="3276.8" x2="3227.6" y2="3276.8" stroke-width="4.8188" />
<line x1="819.2" y1="3276.8" x2="868.35" y2="3276.8" stroke-width="4.8188" />
<line x1="3276.8" y1="819.2" x2="3257.1" y2="819.2" stroke-width="4.8188" />
<line x1="819.2" y1="819.2" x2="838.86" y2="819.2" stroke-width="4.8188" />
<line x1="3276.8" y1="1024" x2="3257.1" y2="1024" stroke-width="4.8188" />
<line x1="819.2" y1="1024" x2="838.86" y2="1024" stroke-width="4.8188" />
<line x1="3276.8" y1="1228.8" x2="3257.1" y2="1228.8" stroke-width="4.8188" />
<line x1="819.2" y1="1228.8" x2="838.86" y2="1228.8" stroke-width="4.8188" />
<line x1="3276.8" y1="1433.6" x2="3257.1" y2="1433.6" stroke-width="4.8188" />
<line x1="819.2" y1="1433.6" x2="838.86" y2="1433.6" stroke-width="4.8188" />
<line x1="3276.8" y1="1638.4" x2="3257.1" y2="1638.4" stroke-width="4.8188" />
<line x1="819.2" y1="1638.4" x2="838.86" y2="1638.4" stroke-width="4.8188" />
<line x1="3276.8" y1="1843.2" x2="3257.1" y2="1843.2" stroke-width="4.8188" />
<line x1="819.2" y1="1843.2" x2="838.86" y2="1843.2" stroke-width="4.8188" />
<line x1="3276.8" y1="2048" x2="3257.1" y2="2048" stroke-width="4.8188" />
<line x1="819.2" y1="2048" x2="838.86" y2="2048" stroke-width="4.8188" />
<line x1="3276.8" y1="2252.8" x2="3257.1" y2="2252.8" stroke-width="4.8188" />
<line x1="819.2" y1="2252.8" x2="838.86" y2="2252.8" stroke-width="4.8188" />
<line x1="3276.8" y1="2457.6" x2="3257.1" y2="2457.6" stroke-width="4.8188" />
<line x1="819.2" y1="2457.6" x2="838.86" y2="2457.6" stroke-width="4.8188" />
<line x1="3276.8" y1="2662.4" x2="3257.1" y2="2662.4" stroke-width="4.8188" />
<line x1="819.2" y1="2662.4" x2="838.86" y2="2662.4" stroke-width="4.8188" />
<line x1="3276.8" y1="2867.2" x2="3257.1" y2="2867.2" stroke-width="4.8188" />
<line x1="819.2" y1="2867.2" x2="838.86" y2="2867.2" stroke-width="4.8188" />
<line x1="3276.8" y1="3072" x2="3257.1" y2="3072" stroke-width="4.8188" />
<line x1="819.2" y1="3072" x2="838.86" y2="3072" stroke-width="4.8188" />
<line x1="3276.8" y1="3276.8" x2="3257.1" y2="3276.8" stroke-width="4.8188" />
<line x1="819.2" y1="3276.8" x2="838.86" y2="3276.8" stroke-width="4.8188" />
<text transform="translate(1686,501.24) scale(1,-1) scale(6.4512) " font-family="Helvetica,sans-serif" font-size="20px" stroke="none" fill="black" >Map size (K)</text>
<text transform="matrix(0 6.4512 6.4512 0 511.58 1832.9) " font-family="Helvetica,sans-serif" font-size="20px" stroke="none" fill="black" >Pauses</text>
<line x1="836.75" y1="820.74" x2="836.75" y2="866.82" stroke="red" stroke-width="2.304" />
<line x1="836.75" y1="843.78" x2="856.71" y2="855.3" stroke="red" stroke-width="2.304" />
<line x1="836.75" y1="843.78" x2="816.8" y2="832.26" stroke="red" stroke-width="2.304" />
<line x1="836.75" y1="843.78" x2="856.71" y2="832.26" stroke="red" stroke-width="2.304" />
<line x1="836.75" y1="843.78" x2="816.8" y2="855.3" stroke="red" stroke-width="2.304" />
<line x1="854.31" y1="839.99" x2="854.31" y2="886.07" stroke="red" stroke-width="2.304" />
<line x1="854.31" y1="863.03" x2="874.26" y2="874.55" stroke="red" stroke-width="2.304" />
<line x1="854.31" y1="863.03" x2="834.36" y2="851.51" stroke="red" stroke-width="2.304" />
<line x1="854.31" y1="863.03" x2="874.26" y2="851.51" stroke="red" stroke-width="2.304" />
<line x1="854.31" y1="863.03" x2="834.36" y2="874.55" stroke="red" stroke-width="2.304" />
<line x1="889.42" y1="881.77" x2="889.42" y2="927.85" stroke="red" stroke-width="2.304" />
<line x1="889.42" y1="904.81" x2="909.37" y2="916.33" stroke="red" stroke-width="2.304" />
<line x1="889.42" y1="904.81" x2="869.46" y2="893.29" stroke="red" stroke-width="2.304" />
<line x1="889.42" y1="904.81" x2="909.37" y2="893.29" stroke="red" stroke-width="2.304" />
<line x1="889.42" y1="904.81" x2="869.46" y2="916.33" stroke="red" stroke-width="2.304" />
<line x1="959.63" y1="944.44" x2="959.63" y2="990.52" stroke="red" stroke-width="2.304" />
<line x1="959.63" y1="967.48" x2="979.59" y2="979" stroke="red" stroke-width="2.304" />
<line x1="959.63" y1="967.48" x2="939.68" y2="955.96" stroke="red" stroke-width="2.304" />
<line x1="959.63" y1="967.48" x2="979.59" y2="955.96" stroke="red" stroke-width="2.304" />
<line x1="959.63" y1="967.48" x2="939.68" y2="979" stroke="red" stroke-width="2.304" />
<line x1="1100.1" y1="1092.3" x2="1100.1" y2="1138.4" stroke="red" stroke-width="2.304" />
<line x1="1100.1" y1="1115.3" x2="1120" y2="1126.9" stroke="red" stroke-width="2.304" />
<line x1="1100.1" y1="1115.3" x2="1080.1" y2="1103.8" stroke="red" stroke-width="2.304" />
<line x1="1100.1" y1="1115.3" x2="1120" y2="1103.8" stroke="red" stroke-width="2.304" />
<line x1="1100.1" y1="1115.3" x2="1080.1" y2="1126.9" stroke="red" stroke-width="2.304" />
<line x1="1380.9" y1="1383.9" x2="1380.9" y2="1430" stroke="red" stroke-width="2.304" />
<line x1="1380.9" y1="1407" x2="1400.9" y2="1418.5" stroke="red" stroke-width="2.304" />
<line x1="1380.9" y1="1407" x2="1361" y2="1395.5" stroke="red" stroke-width="2.304" />
<line x1="1380.9" y1="1407" x2="1400.9" y2="1395.5" stroke="red" stroke-width="2.304" />
<line x1="1380.9" y1="1407" x2="1361" y2="1418.5" stroke="red" stroke-width="2.304" />
<line x1="1942.7" y1="1971.7" x2="1942.7" y2="2017.8" stroke="red" stroke-width="2.304" />
<line x1="1942.7" y1="1994.8" x2="1962.6" y2="2006.3" stroke="red" stroke-width="2.304" />
<line x1="1942.7" y1="1994.8" x2="1922.7" y2="1983.2" stroke="red" stroke-width="2.304" />
<line x1="1942.7" y1="1994.8" x2="1962.6" y2="1983.2" stroke="red" stroke-width="2.304" />
<line x1="1942.7" y1="1994.8" x2="1922.7" y2="2006.3" stroke="red" stroke-width="2.304" />
<line x1="3066.1" y1="3200.5" x2="3066.1" y2="3246.6" stroke="red" stroke-width="2.304" />
<line x1="3066.1" y1="3223.6" x2="3086.1" y2="3235.1" stroke="red" stroke-width="2.304" />
<line x1="3066.1" y1="3223.6" x2="3046.2" y2="3212" stroke="red" stroke-width="2.304" />
<line x1="3066.1" y1="3223.6" x2="3086.1" y2="3212" stroke="red" stroke-width="2.304" />
<line x1="3066.1" y1="3223.6" x2="3046.2" y2="3235.1" stroke="red" stroke-width="2.304" />
<polyline points="836.75,843.78 854.31,863.03 889.42,904.81 959.63,967.48 1100.1,1115.3 1380.9,1407 1942.7,1994.8 3066.1,3223.6 " stroke="red" stroke-width="4.8188" />
<line x1="813.71" y1="797.39" x2="859.79" y2="843.47" stroke-width="2.304" />
<line x1="859.79" y1="797.39" x2="813.71" y2="843.47" stroke-width="2.304" />
<line x1="831.27" y1="797.39" x2="877.35" y2="843.47" stroke-width="2.304" />
<line x1="877.35" y1="797.39" x2="831.27" y2="843.47" stroke-width="2.304" />
<line x1="866.38" y1="799.44" x2="912.46" y2="845.52" stroke-width="2.304" />
<line x1="912.46" y1="799.44" x2="866.38" y2="845.52" stroke-width="2.304" />
<line x1="936.59" y1="799.85" x2="982.67" y2="845.93" stroke-width="2.304" />
<line x1="982.67" y1="799.85" x2="936.59" y2="845.93" stroke-width="2.304" />
<line x1="1077" y1="807.22" x2="1123.1" y2="853.3" stroke-width="2.304" />
<line x1="1123.1" y1="807.22" x2="1077" y2="853.3" stroke-width="2.304" />
<line x1="1357.9" y1="807.22" x2="1404" y2="853.3" stroke-width="2.304" />
<line x1="1404" y1="807.22" x2="1357.9" y2="853.3" stroke-width="2.304" />
<line x1="1919.6" y1="826.47" x2="1965.7" y2="872.55" stroke-width="2.304" />
<line x1="1965.7" y1="826.47" x2="1919.6" y2="872.55" stroke-width="2.304" />
<line x1="3043.1" y1="828.11" x2="3089.2" y2="874.19" stroke-width="2.304" />
<line x1="3089.2" y1="828.11" x2="3043.1" y2="874.19" stroke-width="2.304" />
<polyline points="836.75,820.43 854.31,820.43 889.42,822.48 959.63,822.89 1100.1,830.26 1380.9,830.26 1942.7,849.51 3066.1,851.15 " stroke-width="4.8188" stroke-dasharray="4.8188, 14.456" />
</g>
</svg>
