<?xml version="1.0" encoding="ISO-8859-1" standalone="no"?>
<!DOCTYPE svg PUBLIC "-//W3C//DTD SVG 1.1//EN" "http://www.w3.org/Graphics/SVG/1.1/DTD/svg11.dtd">
<svg version="1.1" baseProfile="full" id="body" width="8in" height="8in" viewBox="0 0 1 1" preserveAspectRatio="none" xmlns="http://www.w3.org/2000/svg" xmlns:xlink="http://www.w3.org/1999/xlink" xmlns:ev="http://www.w3.org/2001/xml-events">
<title>SVG drawing</title>
<desc>This was produced by version 4.4 of GNU libplot, a free library for exporting 2-D vector graphics.</desc>
<rect id="background" x="0" y="0" width="1" height="1" stroke="none" fill="white"/>
<g id="content" transform="translate(0,1) scale(1,-1) scale(0.00024414) " xml:space="preserve" stroke="black" stroke-linecap="butt" stroke-linejoin="miter" stroke-miterlimit="10.433" stroke-dasharray="none" stroke-dashoffset="0" stroke-opacity="1" fill="none" fill-rule="evenodd" fill-opacity="1" font-style="normal" font-variant="normal" font-weight="normal" font-stretch="normal" font-size-adjust="none" letter-spacing="normal" word-spacing="normal" text-anchor="start">
<rect x="819.2" y="819.2" width="2457.6" height="2457.6" stroke-width="4.8188" />
<text transform="translate(783.33,662.21) scale(1,-1) scale(6.4512) " font-family="Helvetica,sans-serif" font-size="20px" stroke="none" fill="black" >0</text>
<line x1="819.2" y1="3276.8" x2="819.2" y2="3227.6" stroke-width="4.8188" />
<line x1="819.2" y1="819.2" x2="819.2" y2="868.35" stroke-width="4.8188" />
<text transform="translate(1062.7,662.21) scale(1,-1) scale(6.4512) " font-family="Helvetica,sans-serif" font-size="20px" stroke="none" fill="black" >500</text>
<line x1="1170.3" y1="3276.8" x2="1170.3" y2="3227.6" stroke-width="4.8188" />
<line x1="1170.3" y1="819.2" x2="1170.3" y2="868.35" stroke-width="4.8188" />
<text transform="translate(1377.9,662.21) scale(1,-1) scale(6.4512) " font-family="Helvetica,sans-serif" font-size="20px" stroke="none" fill="black" >1000</text>
<line x1="1521.4" y1="3276.8" x2="1521.4" y2="3227.6" stroke-width="4.8188" />
<line x1="1521.4" y1="819.2" x2="1521.4" y2="868.35" stroke-width="4.8188" />
<text transform="translate(1729,662.21) scale(1,-1) scale(6.4512) " font-family="Helvetica,sans-serif" font-size="20px" stroke="none" fill="black" >1500</text>
<line x1="1872.5" y1="3276.8" x2="1872.5" y2="3227.6" stroke-width="4.8188" />
<line x1="1872.5" y1="819.2" x2="1872.5" y2="868.35" stroke-width="4.8188" />
<text transform="translate(2080.1,662.21) scale(1,-1) scale(6.4512) " font-family="Helvetica,sans-serif" font-size="20px" stroke="none" fill="black" >2000</text>
<line x1="2223.5" y1="3276.8" x2="2223.5" y2="3227.6" stroke-width="4.8188" />
<line x1="2223.5" y1="819.2" x2="2223.5" y2="868.35" stroke-width="4.8188" />
<text transform="translate(2431.2,662.21) scale(1,-1) scale(6.4512) " font-family="Helvetica,sans-serif" font-size="20px" stroke="none" fill="black" >2500</text>
<line x1="2574.6" y1="3276.8" x2="2574.6" y2="3227.6" stroke-width="4.8188" />
<line x1="2574.6" y1="819.2" x2="2574.6" y2="868.35" stroke-width="4.8188" />
<text transform="translate(2782.2,662.21) scale(1,-1) scale(6.4512) " font-family="Helvetica,sans-serif" font-size="20px" stroke="none" fill="black" >3000</text>
<line x1="2925.7" y1="3276.8" x2="2925.7" y2="3227.6" stroke-width="4.8188" />
<line x1="2925.7" y1="819.2" x2="2925.7" y2="868.35" stroke-width="4.8188" />
<text transform="translate(3133.3,662.21) scale(1,-1) scale(6.4512) " font-family="Helvetica,sans-serif" font-size="20px" stroke="none" fill="black" >3500</text>
<line x1="3276.8" y1="3276.8" x2="3276.8" y2="3227.6" stroke-width="4.8188" />
<line x1="3276.8" y1="819.2" x2="3276.8" y2="868.35" stroke-width="4.8188" />
<text transform="translate(602.99,773.65) scale(1,-1) scale(6.4512) " font-family="Helvetica,sans-serif" font-size="20px" stroke="none" fill="black" >0.0</text>
<line x1="3276.8" y1="819.2" x2="3227.6" y2="819.2" stroke-width="4.8188" />
<line x1="819.2" y1="819.2" x2="868.35" y2="819.2" stroke-width="4.8188" />
<text transform="translate(602.99,1265.2) scale(1,-1) scale(6.4512) " font-family="Helvetica,sans-serif" font-size="20px" stroke="none" fill="black" >0.1</text>
<line x1="3276.8" y1="1310.7" x2="3227.6" y2="1310.7" stroke-width="4.8188" />
<line x1="819.2" y1="1310.7" x2="868.35" y2="1310.7" stroke-width="4.8188" />
<text transform="translate(602.99,1756.7) scale(1,-1) scale(6.4512) " font-family="Helvetica,sans-serif" font-size="20px" stroke="none" fill="black" >0.2</text>
<line x1="3276.8" y1="1802.2" x2="3227.6" y2="1802.2" stroke-width="4.8188" />
<line x1="819.2" y1="1802.2" x2="868.35" y2="1802.2" stroke-width="4.8188" />
<text transform="translate(602.99,2248.2) scale(1,-1) scale(6.4512) " font-family="Helvetica,sans-serif" font-size="20px" stroke="none" fill="black" >0.3</text>
<line x1="3276.8" y1="2293.8" x2="3227.6" y2="2293.8" stroke-width="4.8188" />
<line x1="819.2" y1="2293.8" x2="868.35" y2="2293.8" stroke-width="4.8188" />
<text transform="translate(602.99,2739.7) scale(1,-1) scale(6.4512) " font-family="Helvetica,sans-serif" font-size="20px" stroke="none" fill="black" >0.4</text>
<line x1="3276.8" y1="2785.3" x2="3227.6" y2="2785.3" stroke-width="4.8188" />
<line x1="819.2" y1="2785.3" x2="868.35" y2="2785.3" stroke-width="4.8188" />
<text transform="translate(602.99,3231.3) scale(1,-1) scale(6.4512) " font-family="Helvetica,sans-serif" font-size="20px" stroke="none" fill="black" >0.5</text>
<line x1="3276.8" y1="3276.8" x2="3227.6" y2="3276.8" stroke-width="4.8188" />
<line x1="819.2" y1="3276.8" x2="868.35" y2="3276.8" stroke-width="4.8188" />
<line x1="3276.8" y1="819.2" x2="3257.1" y2="819.2" stroke-width="4.8188" />
<line x1="819.2" y1="819.2" x2="838.86" y2="819.2" stroke-width="4.8188" />
<line x1="3276.8" y1="917.5" x2="3257.1" y2="917.5" stroke-width="4.8188" />
<line x1="819.2" y1="917.5" x2="838.86" y2="917.5" stroke-width="4.8188" />
<line x1="3276.8" y1="1015.8" x2="3257.1" y2="1015.8" stroke-width="4.8188" />
<line x1="819.2" y1="1015.8" x2="838.86" y2="1015.8" stroke-width="4.8188" />
<line x1="3276.8" y1="1114.1" x2="3257.1" y2="1114.1" stroke-width="4.8188" />
<line x1="819.2" y1="1114.1" x2="838.86" y2="1114.1" stroke-width="4.8188" />
<line x1="3276.8" y1="1212.4" x2="3257.1" y2="1212.4" stroke-width="4.8188" />
<line x1="819.2" y1="1212.4" x2="838.86" y2="1212.4" stroke-width="4.8188" />
<line x1="3276.8" y1="1310.7" x2="3257.1" y2="1310.7" stroke-width="4.8188" />
<line x1="819.2" y1="1310.7" x2="838.86" y2="1310.7" stroke-width="4.8188" />
<line x1="3276.8" y1="1409" x2="3257.1" y2="1409" stroke-width="4.8188" />
<line x1="819.2" y1="1409" x2="838.86" y2="1409" stroke-width="4.8188" />
<line x1="3276.8" y1="1507.3" x2="3257.1" y2="1507.3" stroke-width="4.8188" />
<line x1="819.2" y1="1507.3" x2="838.86" y2="1507.3" stroke-width="4.8188" />
<line x1="3276.8" y1="1605.6" x2="3257.1" y2="1605.6" stroke-width="4.8188" />
<line x1="819.2" y1="1605.6" x2="838.86" y2="1605.6" stroke-width="4.8188" />
<line x1="3276.8" y1="1703.9" x2="3257.1" y2="1703.9" stroke-width="4.8188" />
<line x1="819.2" y1="1703.9" x2="838.86" y2="1703.9" stroke-width="4.8188" />
<line x1="3276.8" y1="1802.2" x2="3257.1" y2="1802.2" stroke-width="4.8188" />
<line x1="819.2" y1="1802.2" x2="838.86" y2="1802.2" stroke-width="4.8188" />
<line x1="3276.8" y1="1900.5" x2="3257.1" y2="1900.5" stroke-width="4.8188" />
<line x1="819.2" y1="1900.5" x2="838.86" y2="1900.5" stroke-width="4.8188" />
<line x1="3276.8" y1="1998.8" x2="3257.1" y2="1998.8" stroke-width="4.8188" />
<line x1="819.2" y1="1998.8" x2="838.86" y2="1998.8" stroke-width="4.8188" />
<line x1="3276.8" y1="2097.2" x2="3257.1" y2="2097.2" stroke-width="4.8188" />
<line x1="819.2" y1="2097.2" x2="838.86" y2="2097.2" stroke-width="4.8188" />
<line x1="3276.8" y1="2195.5" x2="3257.1" y2="2195.5" stroke-width="4.8188" />
<line x1="819.2" y1="2195.5" x2="838.86" y2="2195.5" stroke-width="4.8188" />
<line x1="3276.8" y1="2293.8" x2="3257.1" y2="2293.8" stroke-width="4.8188" />
<line x1="819.2" y1="2293.8" x2="838.86" y2="2293.8" stroke-width="4.8188" />
<line x1="3276.8" y1="2392.1" x2="3257.1" y2="2392.1" stroke-width="4.8188" />
<line x1="819.2" y1="2392.1" x2="838.86" y2="2392.1" stroke-width="4.8188" />
<line x1="3276.8" y1="2490.4" x2="3257.1" y2="2490.4" stroke-width="4.8188" />
<line x1="819.2" y1="2490.4" x2="838.86" y2="2490.4" stroke-width="4.8188" />
<line x1="3276.8" y1="2588.7" x2="3257.1" y2="2588.7" stroke-width="4.8188" />
<line x1="819.2" y1="2588.7" x2="838.86" y2="2588.7" stroke-width="4.8188" />
<line x1="3276.8" y1="2687" x2="3257.1" y2="2687" stroke-width="4.8188" />
<line x1="819.2" y1="2687" x2="838.86" y2="2687" stroke-width="4.8188" />
<line x1="3276.8" y1="2785.3" x2="3257.1" y2="2785.3" stroke-width="4.8188" />
<line x1="819.2" y1="2785.3" x2="838.86" y2="2785.3" stroke-width="4.8188" />
<line x1="3276.8" y1="2883.6" x2="3257.1" y2="2883.6" stroke-width="4.8188" />
<line x1="819.2" y1="2883.6" x2="838.86" y2="2883.6" stroke-width="4.8188" />
<line x1="3276.8" y1="2981.9" x2="3257.1" y2="2981.9" stroke-width="4.8188" />
<line x1="819.2" y1="2981.9" x2="838.86" y2="2981.9" stroke-width="4.8188" />
<line x1="3276.8" y1="3080.2" x2="3257.1" y2="3080.2" stroke-width="4.8188" />
<line x1="819.2" y1="3080.2" x2="838.86" y2="3080.2" stroke-width="4.8188" />
<line x1="3276.8" y1="3178.5" x2="3257.1" y2="3178.5" stroke-width="4.8188" />
<line x1="819.2" y1="3178.5" x2="838.86" y2="3178.5" stroke-width="4.8188" />
<line x1="3276.8" y1="3276.8" x2="3257.1" y2="3276.8" stroke-width="4.8188" />
<line x1="819.2" y1="3276.8" x2="838.86" y2="3276.8" stroke-width="4.8188" />
<text transform="translate(1686,501.24) scale(1,-1) scale(6.4512) " font-family="Helvetica,sans-serif" font-size="20px" stroke="none" fill="black" >Map size (K)</text>
<text transform="matrix(0 6.4512 6.4512 0 511.58 1463.6) " font-family="Helvetica,sans-serif" font-size="20px" stroke="none" fill="black" >Max Gen1 pause (s)</text>
<line x1="836.75" y1="835.48" x2="836.75" y2="881.56" stroke="red" stroke-width="2.304" />
<line x1="836.75" y1="858.52" x2="856.71" y2="870.04" stroke="red" stroke-width="2.304" />
<line x1="836.75" y1="858.52" x2="816.8" y2="847" stroke="red" stroke-width="2.304" />
<line x1="836.75" y1="858.52" x2="856.71" y2="847" stroke="red" stroke-width="2.304" />
<line x1="836.75" y1="858.52" x2="816.8" y2="870.04" stroke="red" stroke-width="2.304" />
<line x1="854.31" y1="829.58" x2="854.31" y2="875.66" stroke="red" stroke-width="2.304" />
<line x1="854.31" y1="852.62" x2="874.26" y2="864.14" stroke="red" stroke-width="2.304" />
<line x1="854.31" y1="852.62" x2="834.36" y2="841.1" stroke="red" stroke-width="2.304" />
<line x1="854.31" y1="852.62" x2="874.26" y2="841.1" stroke="red" stroke-width="2.304" />
<line x1="854.31" y1="852.62" x2="834.36" y2="864.14" stroke="red" stroke-width="2.304" />
<line x1="889.42" y1="861.53" x2="889.42" y2="907.61" stroke="red" stroke-width="2.304" />
<line x1="889.42" y1="884.57" x2="909.37" y2="896.09" stroke="red" stroke-width="2.304" />
<line x1="889.42" y1="884.57" x2="869.46" y2="873.05" stroke="red" stroke-width="2.304" />
<line x1="889.42" y1="884.57" x2="909.37" y2="873.05" stroke="red" stroke-width="2.304" />
<line x1="889.42" y1="884.57" x2="869.46" y2="896.09" stroke="red" stroke-width="2.304" />
<line x1="959.63" y1="932.31" x2="959.63" y2="978.39" stroke="red" stroke-width="2.304" />
<line x1="959.63" y1="955.35" x2="979.59" y2="966.87" stroke="red" stroke-width="2.304" />
<line x1="959.63" y1="955.35" x2="939.68" y2="943.83" stroke="red" stroke-width="2.304" />
<line x1="959.63" y1="955.35" x2="979.59" y2="943.83" stroke="red" stroke-width="2.304" />
<line x1="959.63" y1="955.35" x2="939.68" y2="966.87" stroke="red" stroke-width="2.304" />
<line x1="1100.1" y1="1060.1" x2="1100.1" y2="1106.2" stroke="red" stroke-width="2.304" />
<line x1="1100.1" y1="1083.1" x2="1120" y2="1094.7" stroke="red" stroke-width="2.304" />
<line x1="1100.1" y1="1083.1" x2="1080.1" y2="1071.6" stroke="red" stroke-width="2.304" />
<line x1="1100.1" y1="1083.1" x2="1120" y2="1071.6" stroke="red" stroke-width="2.304" />
<line x1="1100.1" y1="1083.1" x2="1080.1" y2="1094.7" stroke="red" stroke-width="2.304" />
<line x1="1380.9" y1="1310.8" x2="1380.9" y2="1356.9" stroke="red" stroke-width="2.304" />
<line x1="1380.9" y1="1333.8" x2="1400.9" y2="1345.3" stroke="red" stroke-width="2.304" />
<line x1="1380.9" y1="1333.8" x2="1361" y2="1322.3" stroke="red" stroke-width="2.304" />
<line x1="1380.9" y1="1333.8" x2="1400.9" y2="1322.3" stroke="red" stroke-width="2.304" />
<line x1="1380.9" y1="1333.8" x2="1361" y2="1345.3" stroke="red" stroke-width="2.304" />
<line x1="1942.7" y1="1806.7" x2="1942.7" y2="1852.8" stroke="red" stroke-width="2.304" />
<line x1="1942.7" y1="1829.8" x2="1962.6" y2="1841.3" stroke="red" stroke-width="2.304" />
<line x1="1942.7" y1="1829.8" x2="1922.7" y2="1818.2" stroke="red" stroke-width="2.304" />
<line x1="1942.7" y1="1829.8" x2="1962.6" y2="1818.2" stroke="red" stroke-width="2.304" />
<line x1="1942.7" y1="1829.8" x2="1922.7" y2="1841.3" stroke="red" stroke-width="2.304" />
<line x1="3066.1" y1="2822.7" x2="3066.1" y2="2868.8" stroke="red" stroke-width="2.304" />
<line x1="3066.1" y1="2845.7" x2="3086.1" y2="2857.3" stroke="red" stroke-width="2.304" />
<line x1="3066.1" y1="2845.7" x2="3046.2" y2="2834.2" stroke="red" stroke-width="2.304" />
<line x1="3066.1" y1="2845.7" x2="3086.1" y2="2834.2" stroke="red" stroke-width="2.304" />
<line x1="3066.1" y1="2845.7" x2="3046.2" y2="2857.3" stroke="red" stroke-width="2.304" />
<polyline points="836.75,858.52 854.31,852.62 889.42,884.57 959.63,955.35 1100.1,1083.1 1380.9,1333.8 1942.7,1829.8 3066.1,2845.7 " stroke="red" stroke-width="4.8188" />
<line x1="813.71" y1="797.14" x2="859.79" y2="843.22" stroke-width="2.304" />
<line x1="859.79" y1="797.14" x2="813.71" y2="843.22" stroke-width="2.304" />
<line x1="831.27" y1="799.11" x2="877.35" y2="845.19" stroke-width="2.304" />
<line x1="877.35" y1="799.11" x2="831.27" y2="845.19" stroke-width="2.304" />
<line x1="866.38" y1="799.6" x2="912.46" y2="845.68" stroke-width="2.304" />
<line x1="912.46" y1="799.6" x2="866.38" y2="845.68" stroke-width="2.304" />
<line x1="936.59" y1="799.6" x2="982.67" y2="845.68" stroke-width="2.304" />
<line x1="982.67" y1="799.6" x2="936.59" y2="845.68" stroke-width="2.304" />
<line x1="1077" y1="808.45" x2="1123.1" y2="854.53" stroke-width="2.304" />
<line x1="1123.1" y1="808.45" x2="1077" y2="854.53" stroke-width="2.304" />
<line x1="1357.9" y1="807.96" x2="1404" y2="854.04" stroke-width="2.304" />
<line x1="1404" y1="807.96" x2="1357.9" y2="854.04" stroke-width="2.304" />
<line x1="1919.6" y1="828.6" x2="1965.7" y2="874.68" stroke-width="2.304" />
<line x1="1965.7" y1="828.6" x2="1919.6" y2="874.68" stroke-width="2.304" />
<line x1="3043.1" y1="833.52" x2="3089.2" y2="879.6" stroke-width="2.304" />
<line x1="3089.2" y1="833.52" x2="3043.1" y2="879.6" stroke-width="2.304" />
<polyline points="836.75,820.18 854.31,822.15 889.42,822.64 959.63,822.64 1100.1,831.49 1380.9,831 1942.7,851.64 3066.1,856.56 " stroke-width="4.8188" stroke-dasharray="4.8188, 14.456" />
</g>
</svg>
