<?xml version="1.0" encoding="ISO-8859-1" standalone="no"?>
<!DOCTYPE svg PUBLIC "-//W3C//DTD SVG 1.1//EN" "http://www.w3.org/Graphics/SVG/1.1/DTD/svg11.dtd">
<svg version="1.1" baseProfile="full" id="body" width="8in" height="8in" viewBox="0 0 1 1" preserveAspectRatio="none" xmlns="http://www.w3.org/2000/svg" xmlns:xlink="http://www.w3.org/1999/xlink" xmlns:ev="http://www.w3.org/2001/xml-events">
<title>SVG drawing</title>
<desc>This was produced by version 4.4 of GNU libplot, a free library for exporting 2-D vector graphics.</desc>
<rect id="background" x="0" y="0" width="1" height="1" stroke="none" fill="white"/>
<g id="content" transform="translate(0,1) scale(1,-1) scale(0.00024414) " xml:space="preserve" stroke="black" stroke-linecap="butt" stroke-linejoin="miter" stroke-miterlimit="10.433" stroke-dasharray="none" stroke-dashoffset="0" stroke-opacity="1" fill="none" fill-rule="evenodd" fill-opacity="1" font-style="normal" font-variant="normal" font-weight="normal" font-stretch="normal" font-size-adjust="none" letter-spacing="normal" word-spacing="normal" text-anchor="start">
<rect x="819.2" y="819.2" width="2457.6" height="2457.6" stroke-width="4.8188" />
<text transform="translate(783.33,662.21) scale(1,-1) scale(6.4512) " font-family="Helvetica,sans-serif" font-size="20px" stroke="none" fill="black" >0</text>
<line x1="819.2" y1="3276.8" x2="819.2" y2="3227.6" stroke-width="4.8188" />
<line x1="819.2" y1="819.2" x2="819.2" y2="868.35" stroke-width="4.8188" />
<text transform="translate(1062.7,662.21) scale(1,-1) scale(6.4512) " font-family="Helvetica,sans-serif" font-size="20px" stroke="none" fill="black" >500</text>
<line x1="1170.3" y1="3276.8" x2="1170.3" y2="3227.6" stroke-width="4.8188" />
<line x1="1170.3" y1="819.2" x2="1170.3" y2="868.35" stroke-width="4.8188" />
<text transform="translate(1377.9,662.21) scale(1,-1) scale(6.4512) " font-family="Helvetica,sans-serif" font-size="20px" stroke="none" fill="black" >1000</text>
<line x1="1521.4" y1="3276.8" x2="1521.4" y2="3227.6" stroke-width="4.8188" />
<line x1="1521.4" y1="819.2" x2="1521.4" y2="868.35" stroke-width="4.8188" />
<text transform="translate(1729,662.21) scale(1,-1) scale(6.4512) " font-family="Helvetica,sans-serif" font-size="20px" stroke="none" fill="black" >1500</text>
<line x1="1872.5" y1="3276.8" x2="1872.5" y2="3227.6" stroke-width="4.8188" />
<line x1="1872.5" y1="819.2" x2="1872.5" y2="868.35" stroke-width="4.8188" />
<text transform="translate(2080.1,662.21) scale(1,-1) scale(6.4512) " font-family="Helvetica,sans-serif" font-size="20px" stroke="none" fill="black" >2000</text>
<line x1="2223.5" y1="3276.8" x2="2223.5" y2="3227.6" stroke-width="4.8188" />
<line x1="2223.5" y1="819.2" x2="2223.5" y2="868.35" stroke-width="4.8188" />
<text transform="translate(2431.2,662.21) scale(1,-1) scale(6.4512) " font-family="Helvetica,sans-serif" font-size="20px" stroke="none" fill="black" >2500</text>
<line x1="2574.6" y1="3276.8" x2="2574.6" y2="3227.6" stroke-width="4.8188" />
<line x1="2574.6" y1="819.2" x2="2574.6" y2="868.35" stroke-width="4.8188" />
<text transform="translate(2782.2,662.21) scale(1,-1) scale(6.4512) " font-family="Helvetica,sans-serif" font-size="20px" stroke="none" fill="black" >3000</text>
<line x1="2925.7" y1="3276.8" x2="2925.7" y2="3227.6" stroke-width="4.8188" />
<line x1="2925.7" y1="819.2" x2="2925.7" y2="868.35" stroke-width="4.8188" />
<text transform="translate(3133.3,662.21) scale(1,-1) scale(6.4512) " font-family="Helvetica,sans-serif" font-size="20px" stroke="none" fill="black" >3500</text>
<line x1="3276.8" y1="3276.8" x2="3276.8" y2="3227.6" stroke-width="4.8188" />
<line x1="3276.8" y1="819.2" x2="3276.8" y2="868.35" stroke-width="4.8188" />
<text transform="translate(710.6,773.65) scale(1,-1) scale(6.4512) " font-family="Helvetica,sans-serif" font-size="20px" stroke="none" fill="black" >0</text>
<line x1="3276.8" y1="819.2" x2="3227.6" y2="819.2" stroke-width="4.8188" />
<line x1="819.2" y1="819.2" x2="868.35" y2="819.2" stroke-width="4.8188" />
<text transform="translate(710.6,1388.1) scale(1,-1) scale(6.4512) " font-family="Helvetica,sans-serif" font-size="20px" stroke="none" fill="black" >5</text>
<line x1="3276.8" y1="1433.6" x2="3227.6" y2="1433.6" stroke-width="4.8188" />
<line x1="819.2" y1="1433.6" x2="868.35" y2="1433.6" stroke-width="4.8188" />
<text transform="translate(638.86,2002.5) scale(1,-1) scale(6.4512) " font-family="Helvetica,sans-serif" font-size="20px" stroke="none" fill="black" >10</text>
<line x1="3276.8" y1="2048" x2="3227.6" y2="2048" stroke-width="4.8188" />
<line x1="819.2" y1="2048" x2="868.35" y2="2048" stroke-width="4.8188" />
<text transform="translate(638.86,2616.9) scale(1,-1) scale(6.4512) " font-family="Helvetica,sans-serif" font-size="20px" stroke="none" fill="black" >15</text>
<line x1="3276.8" y1="2662.4" x2="3227.6" y2="2662.4" stroke-width="4.8188" />
<line x1="819.2" y1="2662.4" x2="868.35" y2="2662.4" stroke-width="4.8188" />
<text transform="translate(638.86,3231.3) scale(1,-1) scale(6.4512) " font-family="Helvetica,sans-serif" font-size="20px" stroke="none" fill="black" >20</text>
<line x1="3276.8" y1="3276.8" x2="3227.6" y2="3276.8" stroke-width="4.8188" />
<line x1="819.2" y1="3276.8" x2="868.35" y2="3276.8" stroke-width="4.8188" />
<line x1="3276.8" y1="819.2" x2="3257.1" y2="819.2" stroke-width="4.8188" />
<line x1="819.2" y1="819.2" x2="838.86" y2="819.2" stroke-width="4.8188" />
<line x1="3276.8" y1="942.08" x2="3257.1" y2="942.08" stroke-width="4.8188" />
<line x1="819.2" y1="942.08" x2="838.86" y2="942.08" stroke-width="4.8188" />
<line x1="3276.8" y1="1065" x2="3257.1" y2="1065" stroke-width="4.8188" />
<line x1="819.2" y1="1065" x2="838.86" y2="1065" stroke-width="4.8188" />
<line x1="3276.8" y1="1187.8" x2="3257.1" y2="1187.8" stroke-width="4.8188" />
<line x1="819.2" y1="1187.8" x2="838.86" y2="1187.8" stroke-width="4.8188" />
<line x1="3276.8" y1="1310.7" x2="3257.1" y2="1310.7" stroke-width="4.8188" />
<line x1="819.2" y1="1310.7" x2="838.86" y2="1310.7" stroke-width="4.8188" />
<line x1="3276.8" y1="1433.6" x2="3257.1" y2="1433.6" stroke-width="4.8188" />
<line x1="819.2" y1="1433.6" x2="838.86" y2="1433.6" stroke-width="4.8188" />
<line x1="3276.8" y1="1556.5" x2="3257.1" y2="1556.5" stroke-width="4.8188" />
<line x1="819.2" y1="1556.5" x2="838.86" y2="1556.5" stroke-width="4.8188" />
<line x1="3276.8" y1="1679.4" x2="3257.1" y2="1679.4" stroke-width="4.8188" />
<line x1="819.2" y1="1679.4" x2="838.86" y2="1679.4" stroke-width="4.8188" />
<line x1="3276.8" y1="1802.2" x2="3257.1" y2="1802.2" stroke-width="4.8188" />
<line x1="819.2" y1="1802.2" x2="838.86" y2="1802.2" stroke-width="4.8188" />
<line x1="3276.8" y1="1925.1" x2="3257.1" y2="1925.1" stroke-width="4.8188" />
<line x1="819.2" y1="1925.1" x2="838.86" y2="1925.1" stroke-width="4.8188" />
<line x1="3276.8" y1="2048" x2="3257.1" y2="2048" stroke-width="4.8188" />
<line x1="819.2" y1="2048" x2="838.86" y2="2048" stroke-width="4.8188" />
<line x1="3276.8" y1="2170.9" x2="3257.1" y2="2170.9" stroke-width="4.8188" />
<line x1="819.2" y1="2170.9" x2="838.86" y2="2170.9" stroke-width="4.8188" />
<line x1="3276.8" y1="2293.8" x2="3257.1" y2="2293.8" stroke-width="4.8188" />
<line x1="819.2" y1="2293.8" x2="838.86" y2="2293.8" stroke-width="4.8188" />
<line x1="3276.8" y1="2416.6" x2="3257.1" y2="2416.6" stroke-width="4.8188" />
<line x1="819.2" y1="2416.6" x2="838.86" y2="2416.6" stroke-width="4.8188" />
<line x1="3276.8" y1="2539.5" x2="3257.1" y2="2539.5" stroke-width="4.8188" />
<line x1="819.2" y1="2539.5" x2="838.86" y2="2539.5" stroke-width="4.8188" />
<line x1="3276.8" y1="2662.4" x2="3257.1" y2="2662.4" stroke-width="4.8188" />
<line x1="819.2" y1="2662.4" x2="838.86" y2="2662.4" stroke-width="4.8188" />
<line x1="3276.8" y1="2785.3" x2="3257.1" y2="2785.3" stroke-width="4.8188" />
<line x1="819.2" y1="2785.3" x2="838.86" y2="2785.3" stroke-width="4.8188" />
<line x1="3276.8" y1="2908.2" x2="3257.1" y2="2908.2" stroke-width="4.8188" />
<line x1="819.2" y1="2908.2" x2="838.86" y2="2908.2" stroke-width="4.8188" />
<line x1="3276.8" y1="3031" x2="3257.1" y2="3031" stroke-width="4.8188" />
<line x1="819.2" y1="3031" x2="838.86" y2="3031" stroke-width="4.8188" />
<line x1="3276.8" y1="3153.9" x2="3257.1" y2="3153.9" stroke-width="4.8188" />
<line x1="819.2" y1="3153.9" x2="838.86" y2="3153.9" stroke-width="4.8188" />
<line x1="3276.8" y1="3276.8" x2="3257.1" y2="3276.8" stroke-width="4.8188" />
<line x1="819.2" y1="3276.8" x2="838.86" y2="3276.8" stroke-width="4.8188" />
<text transform="translate(1686,501.24) scale(1,-1) scale(6.4512) " font-family="Helvetica,sans-serif" font-size="20px" stroke="none" fill="black" >Map size (K)</text>
<text transform="matrix(0 6.4512 6.4512 0 552.83 1714.7) " font-family="Helvetica,sans-serif" font-size="20px" stroke="none" fill="black" >Runtime (s)</text>
<line x1="836.75" y1="813.49" x2="836.75" y2="859.57" stroke="red" stroke-width="2.304" />
<line x1="836.75" y1="836.53" x2="856.71" y2="848.05" stroke="red" stroke-width="2.304" />
<line x1="836.75" y1="836.53" x2="816.8" y2="825.01" stroke="red" stroke-width="2.304" />
<line x1="836.75" y1="836.53" x2="856.71" y2="825.01" stroke="red" stroke-width="2.304" />
<line x1="836.75" y1="836.53" x2="816.8" y2="848.05" stroke="red" stroke-width="2.304" />
<line x1="854.31" y1="828.11" x2="854.31" y2="874.19" stroke="red" stroke-width="2.304" />
<line x1="854.31" y1="851.15" x2="874.26" y2="862.67" stroke="red" stroke-width="2.304" />
<line x1="854.31" y1="851.15" x2="834.36" y2="839.63" stroke="red" stroke-width="2.304" />
<line x1="854.31" y1="851.15" x2="874.26" y2="839.63" stroke="red" stroke-width="2.304" />
<line x1="854.31" y1="851.15" x2="834.36" y2="862.67" stroke="red" stroke-width="2.304" />
<line x1="889.42" y1="861.29" x2="889.42" y2="907.37" stroke="red" stroke-width="2.304" />
<line x1="889.42" y1="884.33" x2="909.37" y2="895.85" stroke="red" stroke-width="2.304" />
<line x1="889.42" y1="884.33" x2="869.46" y2="872.81" stroke="red" stroke-width="2.304" />
<line x1="889.42" y1="884.33" x2="909.37" y2="872.81" stroke="red" stroke-width="2.304" />
<line x1="889.42" y1="884.33" x2="869.46" y2="895.85" stroke="red" stroke-width="2.304" />
<line x1="959.63" y1="930.1" x2="959.63" y2="976.18" stroke="red" stroke-width="2.304" />
<line x1="959.63" y1="953.14" x2="979.59" y2="964.66" stroke="red" stroke-width="2.304" />
<line x1="959.63" y1="953.14" x2="939.68" y2="941.62" stroke="red" stroke-width="2.304" />
<line x1="959.63" y1="953.14" x2="979.59" y2="941.62" stroke="red" stroke-width="2.304" />
<line x1="959.63" y1="953.14" x2="939.68" y2="964.66" stroke="red" stroke-width="2.304" />
<line x1="1100.1" y1="1070.3" x2="1100.1" y2="1116.4" stroke="red" stroke-width="2.304" />
<line x1="1100.1" y1="1093.3" x2="1120" y2="1104.9" stroke="red" stroke-width="2.304" />
<line x1="1100.1" y1="1093.3" x2="1080.1" y2="1081.8" stroke="red" stroke-width="2.304" />
<line x1="1100.1" y1="1093.3" x2="1120" y2="1081.8" stroke="red" stroke-width="2.304" />
<line x1="1100.1" y1="1093.3" x2="1080.1" y2="1104.9" stroke="red" stroke-width="2.304" />
<line x1="1380.9" y1="1388.6" x2="1380.9" y2="1434.6" stroke="red" stroke-width="2.304" />
<line x1="1380.9" y1="1411.6" x2="1400.9" y2="1423.1" stroke="red" stroke-width="2.304" />
<line x1="1380.9" y1="1411.6" x2="1361" y2="1400.1" stroke="red" stroke-width="2.304" />
<line x1="1380.9" y1="1411.6" x2="1400.9" y2="1400.1" stroke="red" stroke-width="2.304" />
<line x1="1380.9" y1="1411.6" x2="1361" y2="1423.1" stroke="red" stroke-width="2.304" />
<line x1="1942.7" y1="1964.7" x2="1942.7" y2="2010.8" stroke="red" stroke-width="2.304" />
<line x1="1942.7" y1="1987.8" x2="1962.6" y2="1999.3" stroke="red" stroke-width="2.304" />
<line x1="1942.7" y1="1987.8" x2="1922.7" y2="1976.3" stroke="red" stroke-width="2.304" />
<line x1="1942.7" y1="1987.8" x2="1962.6" y2="1976.3" stroke="red" stroke-width="2.304" />
<line x1="1942.7" y1="1987.8" x2="1922.7" y2="1999.3" stroke="red" stroke-width="2.304" />
<line x1="3066.1" y1="3220.7" x2="3066.1" y2="3266.8" stroke="red" stroke-width="2.304" />
<line x1="3066.1" y1="3243.7" x2="3086.1" y2="3255.3" stroke="red" stroke-width="2.304" />
<line x1="3066.1" y1="3243.7" x2="3046.2" y2="3232.2" stroke="red" stroke-width="2.304" />
<line x1="3066.1" y1="3243.7" x2="3086.1" y2="3232.2" stroke="red" stroke-width="2.304" />
<line x1="3066.1" y1="3243.7" x2="3046.2" y2="3255.3" stroke="red" stroke-width="2.304" />
<polyline points="836.75,836.53 854.31,851.15 889.42,884.33 959.63,953.14 1100.1,1093.3 1380.9,1411.6 1942.7,1987.8 3066.1,3243.7 " stroke="red" stroke-width="4.8188" />
<line x1="813.71" y1="812.26" x2="859.79" y2="858.34" stroke-width="2.304" />
<line x1="859.79" y1="812.26" x2="813.71" y2="858.34" stroke-width="2.304" />
<line x1="831.27" y1="827" x2="877.35" y2="873.08" stroke-width="2.304" />
<line x1="877.35" y1="827" x2="831.27" y2="873.08" stroke-width="2.304" />
<line x1="866.38" y1="860.18" x2="912.46" y2="906.26" stroke-width="2.304" />
<line x1="912.46" y1="860.18" x2="866.38" y2="906.26" stroke-width="2.304" />
<line x1="936.59" y1="925.18" x2="982.67" y2="971.26" stroke-width="2.304" />
<line x1="982.67" y1="925.18" x2="936.59" y2="971.26" stroke-width="2.304" />
<line x1="1077" y1="1060.5" x2="1123.1" y2="1106.6" stroke-width="2.304" />
<line x1="1123.1" y1="1060.5" x2="1077" y2="1106.6" stroke-width="2.304" />
<line x1="1357.9" y1="1340.5" x2="1404" y2="1386.6" stroke-width="2.304" />
<line x1="1404" y1="1340.5" x2="1357.9" y2="1386.6" stroke-width="2.304" />
<line x1="1919.6" y1="1918.2" x2="1965.7" y2="1964.3" stroke-width="2.304" />
<line x1="1965.7" y1="1918.2" x2="1919.6" y2="1964.3" stroke-width="2.304" />
<line x1="3043.1" y1="3161.7" x2="3089.2" y2="3207.8" stroke-width="2.304" />
<line x1="3089.2" y1="3161.7" x2="3043.1" y2="3207.8" stroke-width="2.304" />
<polyline points="836.75,835.3 854.31,850.04 889.42,883.22 959.63,948.22 1100.1,1083.5 1380.9,1363.6 1942.7,1941.2 3066.1,3184.8 " stroke-width="4.8188" stroke-dasharray="4.8188, 14.456" />
</g>
</svg>
